<?xml version="1.0" encoding="UTF-8"?>
<svg width="1256px" height="620px" viewBox="0 0 1256 620" version="1.1" xmlns="http://www.w3.org/2000/svg" xmlns:xlink="http://www.w3.org/1999/xlink">
    <title>deepdub-preview</title>
    <g id="deepdub-preview" stroke="none" fill="none" fill-rule="evenodd" stroke-width="1">
        <g id="deppdub-full-logo-magenta-black" transform="translate(413, 271)">
            <path d="M81.9,62.4 L81.9,0 L100.1,0 C115.895343,0 128.7,9.1 128.7,31.2 C128.7,53.3 115.895343,62.4 100.1,62.4 L81.9,62.4 Z M100.1,5.2 L92.3,5.2 L92.3,57.2 L100.1,57.2 C115.021937,57.2 118.234345,45.7981787 118.298995,31.6432286 L118.3,31.2 C118.3,16.8405965 115.177374,5.2 100.1,5.2 Z M397.8,0 L397.800456,20.6396508 C401.103769,16.4132169 405.707645,14.3 410.8,14.3 C420.851582,14.3 429,22.5333333 429,39 C429,55.4666667 420.851582,63.7 410.8,63.7 C405.707645,63.7 401.103769,61.586783 397.800456,57.3603491 L397.8,62.4 L382.2,62.4 L382.2,59.8 L382.459532,59.7936361 C385.210842,59.6584026 387.4,57.384854 387.4,54.6 L387.4,7.8 C387.4,5.01514598 385.210842,2.74159743 382.459532,2.60636389 L382.2,2.6 L382.2,0 L397.8,0 Z M408.2,19.5 C399.704019,19.5 397.850883,27.9896191 397.801047,38.5524665 L397.801047,39.4475334 L397.809848,40.3476934 C397.9622,50.4885718 399.946762,58.5 408.2,58.5 C416.695981,58.5 418.549117,50.0103809 418.598954,39.4475334 L418.6,39 C418.6,28.2304474 416.815642,19.5 408.2,19.5 Z M253.5,14.3 C263.551582,14.3 271.7,22.5333333 271.7,39 C271.7,55.4666667 263.551582,63.7 253.5,63.7 C248.407645,63.7 243.803769,61.5867831 240.500456,57.3603492 L240.5,70.2 C240.5,72.984854 242.689158,75.2584026 245.440468,75.3936361 L245.7,75.4 L245.7,78 L224.9,78 L224.9,75.4 L225.159532,75.3936361 C227.910842,75.2584026 230.1,72.984854 230.1,70.2 L230.1,23.4 C230.1,20.615146 227.910842,18.3415974 225.159532,18.2063639 L224.9,18.2 L224.9,15.6 L240.5,15.6 L240.500456,20.6396509 C243.803769,16.413217 248.407645,14.3 253.5,14.3 Z M250.9,19.5 C242.404019,19.5 240.550883,27.9896191 240.501046,38.5524665 L240.501046,39.4475334 L240.509847,40.3476934 C240.6622,50.4885718 242.646761,58.5 250.9,58.5 C259.395981,58.5 261.249117,50.0103809 261.298953,39.4475334 L261.3,39 C261.3,28.2304474 259.515642,19.5 250.9,19.5 Z M332.8,23.4 C332.8,20.615146 330.610842,18.3415974 327.859532,18.2063639 L327.6,18.2 L327.6,15.6 L343.2,15.6 L343.201047,39.4475334 L343.210045,40.3608508 C343.361654,50.346397 345.292279,58.2640106 353.239939,58.4948209 L353.6,58.5 C362.095981,58.5 363.949117,50.0103809 363.998954,39.4475334 L364,23.4 C364,20.615146 361.810842,18.3415974 359.059532,18.2063639 L358.8,18.2 L358.8,15.6 L374.4,15.6 L374.4,54.6 C374.4,57.384854 376.589158,59.6584026 379.340468,59.7936361 L379.6,59.8 L379.6,62.4 L364,62.4 L364.001583,57.357739 C360.698126,61.585913 356.093403,63.7 351,63.7 C340.948418,63.7 332.8,55.4666667 332.8,39 L332.8,23.4 Z M321.1,0 L321.1,54.6 C321.1,57.384854 323.289158,59.6584026 326.040468,59.7936361 L326.3,59.8 L326.3,62.4 L310.7,62.4 L310.701583,57.357739 C307.398126,61.585913 302.793403,63.7 297.7,63.7 C287.648418,63.7 279.5,55.4666667 279.5,39 C279.5,22.5333333 287.648418,14.3 297.7,14.3 C302.793403,14.3 307.398126,16.414087 310.701583,20.642261 L310.7,7.8 C310.7,5.01514598 308.510842,2.74159743 305.759532,2.60636389 L305.5,2.6 L305.5,0 L321.1,0 Z M300.3,19.5 C291.804019,19.5 289.950883,27.9896191 289.901047,38.5524665 L289.901047,39.4475334 L289.909848,40.3476934 C290.0622,50.4885718 292.046762,58.5 300.3,58.5 C308.795981,58.5 310.649117,50.0103809 310.698954,39.4475334 L310.7,39 C310.7,28.2304474 308.915642,19.5 300.3,19.5 Z M155.090514,57.2 C160.272806,57.2 164.558143,54.6570402 167.24481,50.7010252 L173.541872,50.7008823 C170.222601,59.3669608 163.033642,63.7 154.7,63.7 C143.212477,63.7 133.9,55.4666667 133.9,39 C133.9,22.5333333 143.212477,14.3 154.7,14.3 C166.187523,14.3 175.5,22.5333333 175.5,39 C175.5,39.8912277 175.472721,40.7583374 175.419295,41.601329 L144.312766,41.6014327 L144.334606,42.4014561 C144.623504,50.7433853 146.832901,57.2 155.090514,57.2 Z M154.7,19.5 C147.083923,19.5 144.805983,26.7770032 144.379934,36.400714 L165.020066,36.400714 C164.594017,26.7770032 162.316077,19.5 154.7,19.5 Z M201.890514,57.2 C207.072806,57.2 211.358143,54.6570402 214.04481,50.7010252 L220.341872,50.7008823 C217.022601,59.3669608 209.833642,63.7 201.5,63.7 C190.012477,63.7 180.7,55.4666667 180.7,39 C180.7,22.5333333 190.012477,14.3 201.5,14.3 C212.987523,14.3 222.3,22.5333333 222.3,39 C222.3,39.8912277 222.272721,40.7583374 222.219295,41.601329 L191.112766,41.6014327 L191.134606,42.4014561 C191.423504,50.7433853 193.632901,57.2 201.890514,57.2 Z M201.5,19.5 C193.883923,19.5 191.605983,26.7770032 191.179934,36.400714 L211.820066,36.400714 C211.394017,26.7770032 209.116077,19.5 201.5,19.5 Z" id="Shape" fill="#20202A" fill-rule="nonzero"></path>
            <g id="deepdub-symbol" fill="#FF3390">
                <path d="M0,62.4 C17.2312842,62.4 31.2,48.4312842 31.2,31.2 C31.2,13.9687158 17.2312842,0 0,0 C0,13.2888889 0,23.2555556 0,29.9 C0,37.1222223 0,47.9555556 0,62.4 Z" id="Path"></path>
                <path d="M31.2,62.4 C48.4312842,62.4 62.4,48.4312842 62.4,31.2 C62.4,13.9687158 48.4312842,0 31.2,0 C31.2,13.2888889 31.2,23.2555556 31.2,29.9 C31.2,37.1222223 31.2,47.9555556 31.2,62.4 Z" id="Path"></path>
            </g>
        </g>
    </g>
</svg>