<?xml version="1.0" encoding="UTF-8"?>
<svg width="1256px" height="620px" viewBox="0 0 1256 620" version="1.1" xmlns="http://www.w3.org/2000/svg" xmlns:xlink="http://www.w3.org/1999/xlink">
    <title>tenna-preview</title>
    <g id="tenna-preview" stroke="none" fill="none" fill-rule="evenodd" stroke-width="1">
        <g id="tenna-full-logo-raspberry-black" transform="translate(437, 277)">
            <g transform="translate(4.7388, 7.92)">
                <g id="tenna-wordmark" transform="translate(82.3812, 0)" fill="#181818" fill-rule="nonzero">
                    <path d="M62.4886442,0 L54.8624275,13.2 L39.62772,13.2 L18.2787681,50.16 L0,50.16 L21.34638,13.2 L3.03853651,13.2 L10.6616901,0 L62.4886442,0 Z M117.363602,0 L109.720899,13.2 L79.2429,13.2 L76.19304,18.48 L106.64281,18.48 L99.0001063,31.68 L68.56872,31.68 L65.51886,36.96 L96.0256031,36.96 L88.3828994,50.16 L39.6156912,50.16 L68.5858133,0 L117.363602,0 Z M141.740809,0 L146.65068,28.43478 L163.073507,0 L181.355733,0 L152.382153,50.16 L134.103385,50.16 L129.19104,21.72588 L112.767091,50.16 L94.4884611,50.16 L123.458446,0 L141.740809,0 Z M205.775434,0 L210.6852,28.43544 L227.10827,0 L245.390495,0 L216.416917,50.16 L198.138149,50.16 L193.21434,21.74502 L176.801855,50.16 L158.523087,50.16 L187.467202,0 L205.775434,0 Z M279.035434,0 L287.696917,50.16 L271.398149,50.16 L269.11104,36.96 L248.59296,36.96 L240.925392,50.16 L222.543087,50.16 L251.677305,0 L279.035434,0 Z M264.39666,9.75348 L256.26084,23.76 L266.82348,23.76 L264.39666,9.75348 Z" id="Shape"></path>
                </g>
                <g id="tenna-symbol" fill="#FF0055" fill-rule="nonzero">
                    <path d="M32.0139881,0 L3.04687396,50.16 L0,50.16 L28.9629036,0 L32.0139881,0 Z M41.1477894,0 L12.1945031,50.16 L6.09743125,50.16 L35.0594563,0 L41.1477894,0 Z M53.3598635,0 L24.3873164,50.16 L15.2476746,50.16 L44.2142283,0 L53.3598635,0 Z M68.5888837,0 L39.6223205,50.16 L27.4368125,50.16 L56.3844184,0 L68.5888837,0 Z M86.8774236,0 L57.9289148,50.16 L42.6814303,50.16 L71.6383582,0 L86.8774236,0 Z" id="Shape"></path>
                </g>
            </g>
        </g>
    </g>
</svg>