<?xml version="1.0" encoding="UTF-8"?>
<svg width="1256px" height="620px" viewBox="0 0 1256 620" version="1.1" xmlns="http://www.w3.org/2000/svg" xmlns:xlink="http://www.w3.org/1999/xlink">
    <title>ourritual-preview</title>
    <g id="ourritual-preview" stroke="none" fill="none" fill-rule="evenodd" stroke-width="1">
        <g id="Group" transform="translate(421, 278)">
            <g id="Group">
                <path d="M22.992374,0 C0,0 0,28 0,32 C0,36 0,64 22.992374,64 C45.984748,64 45.984748,36 45.984748,32 C45.984748,28 45.984748,0 22.992374,0 Z" id="Path-53" fill="#FF5B4C"></path>
                <path d="M46.9844164,0 C26.9910477,0 22.992374,8 22.992374,18 C22.992374,28.6666667 30.9658595,43.6666667 46.9128304,63 L72.1726534,63 C60.7120604,45 54.9817639,36 54.9817639,36 C67.9774536,36 70.9764589,24 70.9764589,18 C70.9764589,12 66.9777851,0 46.9844164,0 Z" id="Path-54" fill="#FF5B4C"></path>
                <path d="M32.7031939,2.10458017 C45.6657971,8.53277454 45.9770885,27.7168987 45.9845641,31.731616 L45.9845641,32.268384 C45.9790251,35.2430803 45.80669,46.5458381 40.4448053,54.8171002 C28.8093164,39.3827321 22.992374,27.1107053 22.992374,18 C22.992374,11.1 24.8961426,5.1522 32.6444806,2.127654 Z" id="Combined-Shape" fill="#8C2C38"></path>
            </g>
            <g id="wordmark" transform="translate(88.9733, 0)" fill="#1E131F">
                <path d="M22.9896022,0 C44.8461529,0 45.9258665,25.3019301 45.9792044,31.2377629 L45.9792044,32.7622371 C45.9258665,38.6980699 44.8461529,64 22.9896022,64 C1.13305146,64 0.0533378521,38.6980699 0,32.7622371 L0,31.2377629 C0.0533378521,25.3019301 1.13305146,0 22.9896022,0 Z M22.9896022,4 C8.58987822,4 8.01820917,22.4435218 7.99551391,30.992463 L7.99638337,33.2695952 C8.03116893,41.9271928 8.73532997,60 22.9896022,60 C37.3893262,60 37.9609952,41.5564782 37.9836905,33.007537 L37.982821,30.7304048 C37.9480354,22.0728072 37.2438744,4 22.9896022,4 Z M145.94882,0 C165.942188,0 169.940862,12 169.940862,18 L169.937055,18.3746908 C169.81429,24.484798 166.676639,36 153.946167,36 L167.317718,57 L168.762657,59.2369995 C169.43087,60.2715022 170.549888,60.9203947 171.769889,60.9931554 L171.999737,61 L171.999737,63 L161.567484,63 L145.911931,38.0504241 C145.557163,37.4490069 145.351635,36.7485132 145.351635,36 C145.351635,33.790861 147.141902,32 149.350309,32 L149.947493,32 C157.971499,32 161.983501,27.3333333 161.983501,18 C161.983501,8.66666667 156.638607,4 145.94882,4 L137.950656,4 L137.951472,58 C137.951472,59.5976809 139.199978,60.9036609 140.774263,60.9949073 L140.950478,61 L140.950478,63 L129.954125,63 L129.954125,0 L145.94882,0 Z M79.970703,63 L79.9704083,55.8943545 C78.1450702,60.3562328 74.6534956,64 67.9746818,64 C54.539138,64 54.0017162,49.2544 53.9802194,42.766336 L53.9793237,21 L61.9766712,21 L61.9793064,43.2695182 C62.0163521,49.5409443 62.5741741,60 70.9736871,60 C78.071333,60 79.5697249,52.5318519 79.886052,46.4328642 L79.9100688,45.9209136 C79.9564361,44.8196049 79.9673461,43.7725432 79.9699131,42.8339753 L79.970703,26 C79.970703,24.4023191 78.7221971,23.0963391 77.147912,23.0050927 L76.9716977,23 L76.9716977,21 L87.9680505,21 L87.9680505,58 C87.9680505,59.5976809 89.2165563,60.9036609 90.7908414,60.9949073 L90.9670558,61 L90.9670558,63 L79.970703,63 Z M253.089557,23.0050927 L252.913342,23 L252.913342,21 L263.909695,21 L263.909695,63 L255.912348,63 L255.912053,55.8943545 C254.086715,60.3562328 250.59514,64 243.916326,64 C230.480783,64 229.943361,49.2544 229.921864,42.766336 L229.920968,21 L237.918316,21 L237.920951,43.2695182 C237.957997,49.5409443 238.515819,60 246.915332,60 C254.012978,60 255.511369,52.5318519 255.827697,46.4328642 L255.851713,45.9209136 C255.898081,44.8196049 255.908991,43.7725432 255.911558,42.8339753 L255.912348,26 C255.912348,24.4614925 254.754611,23.1934785 253.26309,23.0201832 L253.089557,23.0050927 Z M209.9276,12 L209.926784,21 L222.923289,21 L222.923289,25 L209.926784,25 L209.930235,43.2695182 C209.96728,49.5409443 210.525103,60 218.924615,60 C220.525659,60 221.841792,59.6199941 222.923949,58.961417 L222.923949,62.1850141 C221.104999,63.3188838 218.813194,64 215.92561,64 C202.490066,64 201.952645,49.2544 201.931148,42.766336 L201.929436,25 L197.931578,25 L197.931578,21 L201.929436,21 L201.930252,12 L209.9276,12 Z M94.9657295,63 L94.9657295,61 L95.1419439,60.9949073 C96.7162289,60.9036609 97.9647348,59.5976809 97.9647348,58 L97.9647348,26 C97.9647348,24.4023191 96.7162289,23.0963391 95.1419439,23.0050927 L94.9657295,23 L94.9657295,21 L105.962082,21 L105.961149,28.1086487 C107.786149,23.6454024 111.277791,20 117.958104,20 C118.104974,20 118.438197,20 118.957772,20 C121.71828,20 123.956114,22.2385763 123.956114,25 C123.956114,27.7614237 121.71828,30 118.957772,30 C116.197264,30 113.95943,27.7614237 113.95943,25 C113.95943,24.6722838 113.990948,24.3519314 114.051117,24.0418106 C107.830224,24.6470044 106.393503,31.5176588 106.061712,37.292978 L106.022717,38.0790864 C105.976349,39.1803951 105.965439,40.2274568 105.962872,41.1660247 L105.962082,58 C105.962082,59.5976809 107.210588,60.9036609 108.784873,60.9949073 L108.961088,61 L108.961088,63 L94.9657295,63 Z M188.934562,21 L188.934562,58 C188.934562,59.5976809 190.183068,60.9036609 191.757353,60.9949073 L191.933568,61 L191.933568,63 L180.937215,63 L180.937215,21 L188.934562,21 Z M184.935889,17 C187.696397,17 189.934231,14.7614237 189.934231,12 C189.934231,9.23857625 187.696397,7 184.935889,7 C182.175381,7 179.937546,9.23857625 179.937546,12 C179.937546,14.7614237 182.175381,17 184.935889,17 Z M129.954125,0 L129.954125,5 C129.954125,3.40231912 128.705619,2.09633912 127.131334,2.00509269 L126.955119,2 L126.955119,0 L129.954125,0 Z M53.9793237,21 L53.9793237,26 C53.9793237,24.4023191 52.7308178,23.0963391 51.1565327,23.0050927 L50.9803184,23 L50.9803184,21 L53.9793237,21 Z M229.920968,21 L229.920968,26 C229.920968,24.4023191 228.672462,23.0963391 227.098177,23.0050927 L226.921963,23 L226.921963,21 L229.920968,21 Z M180.937215,21 L180.937215,26 C180.937215,24.4023191 179.688709,23.0963391 178.114424,23.0050927 L177.93821,23 L177.93821,21 L180.937215,21 Z M129.954125,63 L129.954125,58 C129.954125,59.5976809 128.705619,60.9036609 127.131334,60.9949073 L126.955119,61 L126.955119,63 L129.954125,63 Z M180.937215,63 L180.937215,58 C180.937215,59.5976809 179.688709,60.9036609 178.114424,60.9949073 L177.93821,61 L177.93821,63 L180.937215,63 Z M296.898753,63 L296.898753,56 C296.898753,57.8562156 291.900411,64 284.402898,64 C278.904722,64 270.907374,62 270.907374,53 C270.907374,47.0838356 277.224904,43.9580924 283.630706,41.6526194 L284.282205,41.4209155 L284.932857,41.1944065 L285.742763,40.9178742 L289.555401,39.6430765 C293.349355,38.3534805 296.345052,37.1464206 296.82998,35.480274 L296.786429,34.8121338 C296.38424,29.5275493 294.520147,24 285.902401,24 C282.268159,24 279.835017,24.9830435 278.206016,26.5159424 L278.392653,26.5046195 L278.60947,26.5 C281.369979,26.5 283.607813,28.7385763 283.607813,31.5 C283.607813,34.2614237 281.369979,36.5 278.60947,36.5 C275.848962,36.5 273.611128,34.2614237 273.611128,31.5 C273.611128,31.0985422 273.690013,30.5982296 273.847782,29.9990622 C275.326293,24.8541327 279.127681,20 288.901406,20 C304.105963,20 304.857068,31.7473247 304.894173,38.0619635 L304.896101,58 C304.896101,59.5976809 306.144607,60.9036609 307.718892,60.9949073 L307.895106,61 L307.895106,63 L296.898753,63 Z M296.898753,38.0212294 C296.838894,42.2585659 278.904722,42.5879534 278.904722,53 C278.904722,56.8462477 280.450973,60 284.902732,60 C290.82115,60 296.898753,55.7268973 296.898753,49.7820537 L296.898753,38.0212294 Z M311.89378,63 L311.89378,61 L312.069994,60.9949073 C313.644279,60.9036609 314.892785,59.5976809 314.892785,58 L314.892785,5 C314.892785,3.40231912 313.644279,2.09633912 312.069994,2.00509269 L311.89378,2 L311.89378,0 L322.890133,0 L322.890133,58 C322.890133,59.5976809 324.138639,60.9036609 325.712924,60.9949073 L325.889138,61 L325.889138,63 L311.89378,63 Z M263.909695,63 L263.909695,58 C263.909695,59.5976809 265.158201,60.9036609 266.732486,60.9949073 L266.9087,61 L266.9087,63 L263.909695,63 Z" id="Shape"></path>
            </g>
        </g>
    </g>
</svg>