<?xml version="1.0" encoding="UTF-8"?>
<svg width="1256px" height="620px" viewBox="0 0 1256 620" version="1.1" xmlns="http://www.w3.org/2000/svg" xmlns:xlink="http://www.w3.org/1999/xlink">
    <title>headroom-preview</title>
    <g id="headroom-preview" stroke="none" fill="none" fill-rule="evenodd" stroke-width="1">
        <g id="headroom-full-logo-white" transform="translate(367, 257)">
            <g transform="translate(15.5596, 15.5882)">
                <g id="headeroom-wordmark" transform="translate(99.5817, 0)" fill="#181818" fill-rule="nonzero">
                    <path d="M364.873394,16.3676471 C370.561772,16.3676471 375.043915,18.6054061 378.099573,22.6616199 L378.099083,0 L390.546789,0 L390.546789,62.3529412 L378.099083,62.3529412 L378.099083,39.75 C378.099083,31.5452243 374.683165,26.5 368.763303,26.5 C362.84344,26.5 359.427523,31.5452243 359.427523,39.75 L359.427523,62.3529412 L346.979817,62.3529412 L346.979817,39.75 C346.979817,25.270984 353.526993,16.3676471 364.873394,16.3676471 Z M274.627523,16.3676471 C285.973925,16.3676471 292.521101,25.270984 292.521101,39.75 C292.39164,53.9734979 285.860461,63.1323529 274.627523,63.1323529 C268.939868,63.1323529 264.45814,60.8951624 261.402509,56.839926 L261.401835,62.3529412 L248.954128,62.3529412 L248.954128,17.1470588 L261.401835,17.1470588 L261.402509,22.660074 C264.45814,18.6048376 268.939868,16.3676471 274.627523,16.3676471 Z M270.737615,26.5 C264.817752,26.5 261.401835,31.5452243 261.401835,39.75 C261.489256,47.7669058 264.894634,53 270.737615,53 C276.657477,53 280.073394,47.9547757 280.073394,39.75 C280.073394,31.5452243 276.657477,26.5 270.737615,26.5 Z M211.611009,0 L211.611684,22.660074 C214.667315,18.6048376 219.149042,16.3676471 224.836697,16.3676471 C236.183099,16.3676471 242.730275,25.270984 242.730275,39.75 C242.600814,53.9734979 236.069635,63.1323529 224.836697,63.1323529 C219.149042,63.1323529 214.667315,60.8951624 211.611684,56.839926 L211.611009,62.3529412 L199.163303,62.3529412 L199.163303,0 L211.611009,0 Z M220.946789,26.5 C215.026927,26.5 211.611009,31.5452243 211.611009,39.75 C211.69843,47.7669058 215.103808,53 220.946789,53 C226.866651,53 230.282569,47.9547757 230.282569,39.75 C230.282569,31.5452243 226.866651,26.5 220.946789,26.5 Z M37.3431193,36.6323529 L37.3431193,62.3529412 L24.8954128,62.3529412 L24.8954128,36.6323529 L37.3431193,36.6323529 Z M12.4477064,36.6323529 L12.4477064,62.3529412 L0,62.3529412 L0,36.6323529 L12.4477064,36.6323529 Z M39.6770642,16.3676471 C43.8953454,16.3676471 47.310655,17.9304639 49.7913767,20.7932248 L49.7908257,17.1470588 L62.2385321,17.1470588 L62.2385321,62.3529412 L49.7908257,62.3529412 L49.7908257,36.6323529 C49.7908257,30.3581127 47.5135471,26.5 43.5669725,26.5 C39.6203978,26.5 37.3431193,30.3581127 37.3431193,36.6323529 L24.8954128,36.6323529 C24.8232927,30.5363617 22.5544798,26.5 18.6715596,26.5 C14.724985,26.5 12.4477064,30.3581127 12.4477064,36.6323529 L3.67350594e-12,36.6323529 C3.67350594e-12,24.0838724 5.40853658,16.3676471 14.7816514,16.3676471 C20.5375564,16.3676471 24.7984092,19.2774546 27.2298272,24.4292184 C29.6603064,19.2774546 33.9211592,16.3676471 39.6770642,16.3676471 Z M165.710092,16.3676471 C164.907798,16.3676471 164.1295,16.4121617 163.375815,16.5000146 L163.376147,27.3668424 C165.081603,26.7889475 167.15622,26.5 169.6,26.5 C175.519862,26.5 178.93578,31.5452243 178.93578,39.75 L178.93578,22.6608469 C175.880044,18.6051219 171.398109,16.3676471 165.710092,16.3676471 Z M191.383486,17.1470588 L178.93578,17.1470588 L178.93578,62.3529412 L191.383486,62.3529412 L191.383486,17.1470588 Z M328.654296,44.4268746 C327.562992,49.82911 324.443582,53 319.750459,53 C316.075749,53 313.465329,51.6298958 311.801979,49.1437744 L298.959991,50.3500182 C302.072701,58.4483016 309.264213,63.1323529 319.750459,63.1323529 C333.56347,63.1323529 341.533945,54.229016 341.533945,39.75 C341.533945,25.270984 333.56347,16.3676471 319.750459,16.3676471 C305.937447,16.3676471 297.966972,25.270984 297.966972,39.75 C297.966972,41.3815305 298.068176,42.9422647 298.267539,44.4274417 L328.654296,44.4268746 Z M319.750459,26.5 C324.443806,26.5 327.56329,29.6711929 328.654452,35.0738995 L310.846465,35.0738995 C311.937627,29.6711929 315.057112,26.5 319.750459,26.5 Z M139.258716,16.3676471 C125.445704,16.3676471 117.475229,25.270984 117.475229,39.75 C117.475229,54.229016 125.445704,63.1323529 139.258716,63.1323529 C153.071727,63.1323529 161.042202,54.229016 161.042202,39.75 C161.042202,25.270984 153.071727,16.3676471 139.258716,16.3676471 Z M139.258716,26.5 C145.178578,26.5 148.594495,31.5452243 148.594495,39.75 C148.594495,47.9547757 145.178578,53 139.258716,53 C133.338853,53 129.922936,47.9547757 129.922936,39.75 C129.922936,31.5452243 133.338853,26.5 139.258716,26.5 Z M90.2458716,16.3676471 C76.4328602,16.3676471 68.4623853,25.270984 68.4623853,39.75 C68.4623853,54.229016 76.4328602,63.1323529 90.2458716,63.1323529 C104.058883,63.1323529 112.029358,54.229016 112.029358,39.75 C112.029358,25.270984 104.058883,16.3676471 90.2458716,16.3676471 Z M90.2458716,26.5 C96.1657339,26.5 99.5816514,31.5452243 99.5816514,39.75 C99.5816514,47.9547757 96.1657339,53 90.2458716,53 C84.3260092,53 80.9100917,47.9547757 80.9100917,39.75 C80.9100917,31.5452243 84.3260092,26.5 90.2458716,26.5 Z" id="Shape" transform="translate(195.2734, 31.5662) scale(-1, 1) translate(-195.2734, -31.5662)"></path>
                </g>
                <g id="headeroom-symbol">
                    <rect id="headroom-space" fill="#181818" opacity="0.1" x="0" y="0" width="74.6862385" height="62.3529412"></rect>
                    <rect id="headroom-base" fill="#123BFF" x="0" y="62.3529412" width="74.6862385" height="12.4705882"></rect>
                </g>
            </g>
        </g>
    </g>
</svg>