<?xml version="1.0" encoding="UTF-8"?>
<svg width="100px" height="100px" viewBox="0 0 100 100" version="1.1" xmlns="http://www.w3.org/2000/svg" xmlns:xlink="http://www.w3.org/1999/xlink">
    <title>ourritual-avatar-1</title>
    <g id="avatar-1" stroke="none" stroke-width="1" fill="none" fill-rule="evenodd">
        <rect id="Rectangle" fill="#F8F5ED" x="0" y="0" width="100" height="100" rx="50"></rect>
        <g id="Group" transform="translate(23, 26)">
            <path d="M17.2030283,0 C0,0 0,21 0,24 C0,27 0,48 17.2030283,48 C34.4060565,48 34.4060565,27 34.4060565,24 C34.4060565,21 34.4060565,0 17.2030283,0 Z" id="Path-53" fill="#FF5B4C"></path>
            <path d="M35.1540143,0 C20.1948593,0 17.2030283,6 17.2030283,13.5 C17.2030283,21.5 23.1688366,32.75 35.1004532,47.25 L54,47.25 C45.4251175,33.75 41.1376763,27 41.1376763,27 C50.861127,27 53.1050003,18 53.1050003,13.5 C53.1050003,9 50.1131693,0 35.1540143,0 Z" id="Path-54" fill="#FF5B4C"></path>
            <path d="M24.4685094,1.57833031 C34.4060565,6.5179955 34.4060565,21.5015 34.4060565,24 L34.4060393,24.095361 C34.404986,26.1502095 34.3394424,34.8066577 30.2608401,41.1131327 C21.5555394,29.5375586 17.2030283,20.3332181 17.2030283,13.5 C17.2030283,8.325 18.627439,3.86415 24.4247907,1.5957405 Z" id="Combined-Shape" fill="#8C2C38"></path>
        </g>
    </g>
</svg>