<?xml version="1.0" encoding="UTF-8"?>
<svg width="1256px" height="620px" viewBox="0 0 1256 620" version="1.1" xmlns="http://www.w3.org/2000/svg" xmlns:xlink="http://www.w3.org/1999/xlink">
    <title>astropay-preview</title>
    <g id="astropay-preview" stroke="none" fill="none" fill-rule="evenodd" stroke-width="1">
        <g id="astropay-full-logo-1" transform="translate(403, 261)">
            <g transform="translate(18.5852, 18.5625)">
                <g id="logomark">
                    <path d="M42.3558009,0 L55.0323211,31.284533 C52.9084628,31.0551775 50.7510792,30.9375 48.5661769,30.9375 C45.3755681,30.9375 42.2436419,31.1884438 39.1891043,31.6716485 L34.3599486,19.7351335 L28.4117949,34.4351449 C20.2761361,37.3615944 12.9633439,42.009347 6.91390544,47.9384531 L26.3068916,0 L42.3558009,0 Z" id="Path" fill="#053634"></path>
                    <path d="M48.5732084,35.8865407 C51.4941545,35.8865407 54.361438,36.1159852 57.15798,36.557813 L64.1816094,53.9232613 C59.3913882,51.8722133 54.1150459,50.7365407 48.5731376,50.7365407 C36.0519319,50.7365407 24.8863717,56.5338741 17.6202256,65.5877501 L0,65.5877501 C9.02368847,47.9568921 27.3874171,35.8865407 48.5732084,35.8865407 Z" id="Path" fill="#00DBBF"></path>
                </g>
                <g id="wordmark" transform="translate(80.5357, 0)" fill="#053634" fill-rule="nonzero">
                    <path d="M0,55.6875 L22.5252198,0 L35.9214066,0 L58.4478654,55.6875 L45.0851319,55.6875 L41.3098955,46.3510852 C39.4359655,45.9814717 37.4987729,45.7877008 35.5162673,45.7877008 C26.7202576,45.7877008 18.816246,49.6021414 13.3719715,55.6651951 L13.3627335,55.6875 L0,55.6875 Z M29.2244932,16.47855 L20.1192923,38.9844981 C24.8531498,36.9902054 30.0557996,35.8877008 35.5162673,35.8877008 C36.0427998,35.8877008 36.566935,35.897952 37.0884839,35.9182654 L29.2244932,16.47855 Z M296.539974,70.5377008 C307.270955,72.3454457 315.215196,66.6013569 320.372696,53.3054346 L337.429923,11.138027 L324.261715,11.138027 L314.396709,35.5254396 L304.531704,11.138027 L291.16897,11.138027 L307.737186,52.0954125 C304.999335,58.3861101 301.364191,61.2472514 296.831752,60.6788365 L296.539974,60.6377008 L296.539974,70.5377008 Z M58.7115731,24.7502008 C58.6759117,18.0003327 63.7808247,9.90020091 77.9162435,9.90020091 C90.3063534,9.90020091 96.0671098,16.0877008 97.1209138,23.5127008 L85.6273106,23.5127008 C84.4261546,21.2027009 81.855799,20.0477008 77.9162435,20.0477008 C70.299373,20.0477008 70.2460194,26.5883014 77.6094612,27.7972981 L77.9156931,27.8439508 C89.9598999,29.0814508 97.0774531,33.953333 97.1203634,42.0752008 C97.1560249,48.8250691 92.0511118,56.9252008 77.9156931,56.9252008 C65.5255832,56.9252008 59.7648266,50.7377008 58.7110228,43.3127008 L70.2046258,43.3127008 C71.4057818,45.6227009 73.9761376,46.7777008 77.9156931,46.7777008 C85.6369043,46.7777008 85.5859595,40.0566785 77.9156931,38.9814508 C65.8720366,37.7439508 58.7544833,32.8720688 58.7115731,24.7502008 Z M278.016518,35.8877008 C276.922242,38.6003671 263.148386,36.9951585 263.148386,43.3127008 C263.148386,49.9628641 278.016518,48.2627008 278.016518,40.8377008 L278.016518,35.8877008 Z M278.011347,24.4655098 C277.880736,20.9322837 275.289614,20.1496466 271.842086,20.0477008 C267.698042,20.1694222 265.213014,21.3244222 264.387008,23.5127008 L253.235909,23.5127008 C253.235909,16.0877008 259.430964,9.90020091 271.821074,9.90020091 C281.91117,9.90020091 290.453445,14.5775609 290.406819,23.5127008 L290.398824,25.9176711 L290.406819,55.6877008 L278.016518,55.6877008 L278.01713,50.2142051 C275.331261,55.4951329 268.853288,56.9252008 264.387397,56.9252008 C258.358457,56.9252008 250.758276,53.2127008 250.758276,43.3127008 C250.758276,25.2320315 278.016518,31.0934092 278.016518,24.7502008 L278.011347,24.4655098 Z M119.423112,2.47520091 L119.422074,11.1375 L128.096188,11.1377009 L128.096188,21.0377008 L119.422074,21.0375 L119.423112,39.6002008 C119.423112,45.2641432 122.204013,47.5489929 127.765816,46.4547501 L128.096188,46.3864854 L128.096188,55.6881997 L127.713344,55.7892497 C124.860883,56.4959631 107.033002,60.0932008 107.033002,39.6002008 L107.031964,21.0375 L100.837947,21.0377008 L100.837947,11.1377009 L107.033002,11.1377009 L110.750035,2.47520091 L119.423112,2.47520091 Z M157.832452,11.1377009 L157.832452,22.2752008 C149.572379,21.0377008 145.442342,23.9252009 145.442342,30.9377008 L145.442342,55.6877008 L133.052232,55.6877008 L133.052232,11.1377009 L145.442342,11.1377009 L145.4416,16.8983182 C149.670973,9.48409947 157.832452,11.1377009 157.832452,11.1377009 Z M228.456078,0.000200905159 C242.498204,0.000200905159 249.519265,6.3939509 249.519265,19.1814508 C249.519265,31.9689509 242.498204,38.3627008 228.456078,38.3627008 L219.781964,38.3625 L219.783001,55.6877008 L207.392891,55.6877008 L207.392891,0.000200905159 L228.456078,0.000200905159 Z M219.781964,28.4625 L228.456078,28.4627008 C234.23813,28.4627008 237.129155,25.3689508 237.129155,19.1814508 C237.129155,12.9939508 234.23813,9.90020091 228.456078,9.90020091 L219.781964,9.9 L219.781964,28.4625 Z M181.373661,19.8002008 C175.59161,19.8002008 172.700584,24.3377009 172.700584,33.4127008 L172.703254,33.8861427 C172.802914,42.6455148 175.693049,47.0252008 181.373661,47.0252008 C187.155712,47.0252008 190.046738,42.4877009 190.046738,33.4127008 C190.046738,24.3377009 187.155712,19.8002008 181.373661,19.8002008 Z M202.434248,33.9322981 C202.279958,49.2609 195.259762,56.9252008 181.373661,56.9252008 C167.331537,56.9252008 160.310474,49.0877009 160.310474,33.4127008 C160.310474,17.7377009 167.331537,9.90020091 181.373661,9.90020091 C195.415786,9.90020091 202.436847,17.7377009 202.436847,33.4127008 L202.434248,33.9322981 Z" id="Shape"></path>
                </g>
            </g>
        </g>
    </g>
</svg>