<?xml version="1.0" encoding="UTF-8"?>
<svg width="1256px" height="620px" viewBox="0 0 1256 620" version="1.1" xmlns="http://www.w3.org/2000/svg" xmlns:xlink="http://www.w3.org/1999/xlink">
    <title>timeless-preview</title>
    <g id="timeless-preview" stroke="none" fill="none" fill-rule="evenodd" stroke-width="1">
        <g id="timeless-full-logo-rose" transform="translate(414, 268)">
            <g transform="translate(19.0312, 6.5625)">
                <g id="timeless-wordmark" transform="translate(46.5938, 0)" fill="#1C1B1D" fill-rule="nonzero">
                    <path d="M160.78125,53.8125 C165.170724,53.8125 169.591191,51.7603352 172.235577,48.5630946 L184.231031,48.5625 L184.202113,48.6311258 C180.416346,57.1587785 170.711577,63.65625 160.78125,63.65625 C147.371086,63.65625 136.5,52.7851641 136.5,39.375 C136.5,25.9648359 147.371086,15.09375 160.78125,15.09375 C174.191414,15.09375 185.0625,25.9648359 185.0625,39.375 C185.0625,40.4861278 184.98597,41.5817351 184.837832,42.6566042 L147.249826,42.6569131 C148.475778,49.0122848 154.067939,53.8125 160.78125,53.8125 Z M160.78125,24.9375 C155.02882,24.9375 150.099568,28.4619372 148.03507,33.4692327 L173.52743,33.4692327 C171.462932,28.4619372 166.53368,24.9375 160.78125,24.9375 Z M231.65625,53.8125 C236.045724,53.8125 240.466191,51.7603352 243.110577,48.5630946 L255.106031,48.5625 L255.077113,48.6311258 C251.291346,57.1587785 241.586577,63.65625 231.65625,63.65625 C218.246086,63.65625 207.375,52.7851641 207.375,39.375 C207.375,25.9648359 218.246086,15.09375 231.65625,15.09375 C245.066414,15.09375 255.9375,25.9648359 255.9375,39.375 C255.9375,40.4861278 255.86097,41.5817351 255.712832,42.6566042 L218.124827,42.6569131 C219.350778,49.0122848 224.942939,53.8125 231.65625,53.8125 Z M231.65625,24.9375 C225.90382,24.9375 220.974568,28.4619372 218.91007,33.4692327 L244.40243,33.4692327 C242.337932,28.4619372 237.40868,24.9375 231.65625,24.9375 Z M37.40625,0 L47.90625,0 L47.90625,10.5 L37.40625,10.5 L37.40625,0 Z M16.40625,4.59375 L16.40625,15.75 L28.875,15.75 L28.875,25.59375 L16.40625,25.59375 L16.40625,49.21875 C16.40625,51.3933712 18.1691288,53.15625 20.34375,53.15625 L28.875,53.15625 L28.875,63 L20.34375,63 C12.3701389,63 5.90625,56.5361111 5.90625,48.5625 L5.90625,25.59375 L0,25.59375 L0,15.75 L5.90625,15.75 L5.90625,4.59375 L16.40625,4.59375 Z M37.40625,15.75 L47.90625,15.75 L47.90625,63 L37.40625,63 L37.40625,15.75 Z M190.96875,0 L201.46875,0 L201.46875,63 L190.96875,63 L190.96875,0 Z M109.59375,24.9375 C103.79476,24.9375 99.09375,29.6385101 99.09375,35.4375 L99.09375,63 L88.59375,63 L88.59375,35.4375 C88.59375,29.6385101 83.8927399,24.9375 78.09375,24.9375 C72.2947601,24.9375 67.59375,29.6385101 67.59375,35.4375 L67.59375,63 L57.09375,63 L57.09375,15.75 L67.59375,15.75 L67.5934993,20.0680323 C70.933233,16.9692762 75.2929708,15.09375 80.0625,15.09375 C86.6120272,15.09375 92.3888175,18.6303997 95.812771,24.0146264 C99.2361825,18.6303997 105.012973,15.09375 111.5625,15.09375 C122.073169,15.09375 130.59375,24.2019571 130.59375,35.4375 L130.59375,63 L120.09375,63 L120.09375,35.4375 C120.09375,29.6385101 115.39274,24.9375 109.59375,24.9375 Z M261.84375,28.875 C261.84375,19.03125 272.34375,15.09375 282.1875,15.09375 C292.03125,15.09375 301.596407,20.1492121 303.1875,30.1875 L292.6875,30.1875 C291.375,26.90625 288.09375,24.9375 282.1875,24.9375 C276.104714,24.9375 272.34375,26.6221492 272.34375,28.875 C272.34375,31.2411591 275.521794,33.1839367 281.872607,34.394196 L282.1875,34.453125 C292.03125,35.765625 302.53125,40.03125 302.53125,49.875 C302.53125,59.71875 292.03125,63.65625 282.1875,63.65625 C272.34375,63.65625 262.778593,58.6007879 261.1875,48.5625 L271.6875,48.5625 C273,51.84375 276.28125,53.8125 282.1875,53.8125 C288.270286,53.8125 292.03125,52.1278508 292.03125,49.875 C292.03125,47.4700514 288.748154,45.5024794 282.1875,44.296875 L281.596177,44.2145602 C271.92795,42.8115187 261.84375,38.521875 261.84375,28.875 Z M308.4375,28.875 C308.4375,19.03125 318.9375,15.09375 328.78125,15.09375 C338.625,15.09375 348.190157,20.1492121 349.78125,30.1875 L339.28125,30.1875 C337.96875,26.90625 334.6875,24.9375 328.78125,24.9375 C322.698464,24.9375 318.9375,26.6221492 318.9375,28.875 C318.9375,31.2411591 322.115544,33.1839367 328.466357,34.394196 L328.78125,34.453125 C338.625,35.765625 349.125,40.03125 349.125,49.875 C349.125,59.71875 338.625,63.65625 328.78125,63.65625 C318.9375,63.65625 309.372343,58.6007879 307.78125,48.5625 L318.28125,48.5625 C319.59375,51.84375 322.875,53.8125 328.78125,53.8125 C334.864036,53.8125 338.625,52.1278508 338.625,49.875 C338.625,47.4700514 335.341904,45.5024794 328.78125,44.296875 L328.189927,44.2145602 C318.5217,42.8115187 308.4375,38.521875 308.4375,28.875 Z" id="Shape"></path>
                </g>
                <g id="timeless-symbol" transform="translate(0, 10.5)" fill="#FF0044">
                    <rect id="Rectangle" x="0" y="0" width="21" height="21"></rect>
                    <rect id="Rectangle" x="0" y="31.5" width="21" height="21"></rect>
                </g>
            </g>
        </g>
    </g>
</svg>