<?xml version="1.0" encoding="UTF-8"?>
<svg width="1256px" height="620px" viewBox="0 0 1256 620" version="1.1" xmlns="http://www.w3.org/2000/svg" xmlns:xlink="http://www.w3.org/1999/xlink">
    <title>lemonade-preview</title>
    <defs>
        <path d="M797.154972,323.44898 L796.889141,321.241419 C796.832094,320.872685 795.573514,312.172621 801.54177,306.053089 C803.278493,304.267545 805.374558,303.244898 807.290658,303.244898 C808.923871,303.244898 810.267141,303.950276 810.948185,305.29564 C814.244606,311.806914 797.154972,323.44898 797.154972,323.44898 L797.154972,323.44898 Z M770.002236,310.591837 L769.765204,306.780801 L769.72968,306.302144 C769.72233,306.182794 768.860563,294.126553 769.62862,285.545283 C770.471401,276.212736 773.238,270.183673 776.672822,270.183673 C777.375956,270.183673 778.049691,270.539839 778.576429,271.189983 C780.290165,273.299338 780.791791,278.925752 779.718715,283.994989 C777.991504,292.090064 775.254917,298.509213 773.25025,303.209721 C772.683088,304.538904 772.180849,305.714816 771.786408,306.73683 L770.002236,310.591837 Z M751.625679,336.306122 C747.490161,336.306122 745.537037,332.11287 745.537037,328.170907 C745.537037,307.832234 756.144083,303.823007 760.782031,305.385324 C760.782031,305.385324 760.934493,309.248599 761.308139,314.220472 C761.633274,318.538101 761.92607,323.648946 761.99537,324.089973 C761.99537,324.089973 758.141675,336.306122 751.625679,336.306122 L751.625679,336.306122 Z M716.277778,306.039141 C716.277778,306.039141 715.042715,336.306122 703.796505,336.306122 C698.408678,336.306122 697.990741,330.206319 697.990741,328.334753 C697.990741,306.748628 714.113091,302.905414 716.277778,306.039141 L716.277778,306.039141 Z M611.278379,336.306122 C605.098502,336.306122 602.898148,330.015352 602.898148,324.127813 C602.898148,313.402121 608.990544,305.081633 614.228985,305.081633 C619.331859,305.081633 621.185185,312.273815 621.185185,317.106418 C621.185185,327.872804 616.832563,336.306122 611.278379,336.306122 L611.278379,336.306122 Z M501.13303,305.05996 C508.21254,300.092733 511.432059,306.439637 508.623637,310.723491 C504.73823,316.650803 495.888524,322.514756 493.317103,323.44898 C493.317103,323.44898 491.47066,311.839388 501.13303,305.05996 L501.13303,305.05996 Z M777.105632,342.103864 C785.085684,342.553651 790.568071,337.019016 790.568071,337.019016 C793.19901,341.153548 797.88539,343.167567 804.510294,343.167567 C811.794295,343.167567 819.33091,337.706225 823.644125,332.619498 C826.20661,329.602542 826.484061,327.869171 825.405758,326.921987 C824.425592,326.061252 822.258686,327.187599 820.274729,328.978603 C817.598961,331.39292 811.931203,334.864048 806.971007,334.864048 C800.95795,334.864048 798.217362,330.964432 798.217362,330.964432 C810.463983,323.511624 819.484175,315.051494 819.484175,307.790378 C819.484175,299.652866 813.435376,296.013851 807.440493,296.013851 C796.716218,296.013851 785.138994,305.790768 785.138994,321.587814 C785.138994,326.8086 786.900627,331.244452 786.900627,331.244452 C786.900627,331.244452 784.773097,334.545188 778.01068,333.987652 C770.822999,333.395662 771.278552,320.432024 771.278552,320.432024 C771.278552,320.432024 773.477564,316.343222 774.307495,314.820336 C779.172582,305.90478 785.83141,293.69726 786.90729,279.059136 C787.506415,270.857101 785.17837,266.452571 783.118689,264.200504 C781.286784,262.195256 778.839399,261 776.571326,261 C768.257485,261 762.489166,269.510872 761.091006,277.917755 C759.723741,286.161762 760.274403,298.425035 760.274403,298.425035 C760.274403,298.425035 752.805031,296.582036 745.308397,301.656862 C738.44966,306.29944 735.406784,315.590862 734.449032,320.280424 C734.012864,322.379013 733.865052,324.581591 734.006806,326.823009 C734.072837,327.868544 734.393905,329.881936 734.393905,329.881936 C734.393905,329.881936 731.92774,335.067016 727.545466,335.067016 C720.485606,335.067016 725.145938,302.409848 725.416725,300.573113 C725.634809,299.094078 726.539857,295.937425 721.559669,295.71629 C718.550112,295.582858 717.294918,296.704193 717.064113,298.167567 L716.861779,299.624676 C716.861779,299.624676 706.653031,292.69307 695.095797,305.176852 C688.938563,311.816535 686.703203,321.424938 686.602036,329.133962 L686.596584,329.619456 C686.596584,329.619456 684.064388,336.925676 678.171277,335.831904 C674.247585,335.103976 673.753867,328.137915 673.753867,325.445458 C673.753867,320.280424 674.946059,314.524654 675.905628,309.899616 C676.511416,306.968483 677.036635,304.441407 677.036635,303.058844 C677.036635,298.119957 675.649379,296.013851 672.401747,296.013851 C667.981914,296.013851 664.014605,299.508784 659.619609,304.904349 C654.010613,311.790225 649.837941,322.548779 649.837941,322.548779 C649.837941,322.548779 650.021495,320.625595 650.311062,318.77132 C650.498857,317.572306 651.008931,312.018877 651.950326,306.976 C652.472516,304.184564 652.662733,301.899296 652.696052,301.653103 C652.860826,300.286202 652.551268,299.10598 651.803119,298.239608 C651.067086,297.38827 649.940925,296.898391 648.715415,296.898391 C646.751449,296.898391 644.224705,298.208286 643.024638,301.884261 C642.476399,303.544338 642.161995,304.768411 641.771261,306.739831 L641.403548,308.569048 L640.0381,307.326183 C634.629014,302.389801 627.136016,296.506863 616.391145,296.506863 C601.259759,296.506863 593.093123,310.485968 593.093123,323.642551 C593.093123,325.263789 593.19429,326.809853 593.38996,328.241905 L593.466289,328.806958 C593.466289,328.806958 590.307708,336.439555 584.763531,335.048849 C582.336136,334.439945 580.84105,331.856489 580.84105,325.704806 C580.84105,320.586756 581.871497,313.631971 582.487584,309.458599 C582.695975,308.042208 582.863172,306.924005 582.909212,306.402804 L583.046121,304.859245 C583.469567,300.213534 583.588907,298.114946 582.046569,297.103238 C580.912533,296.369045 579.717313,296.013851 578.397905,296.013851 C577.129384,296.013851 576.129833,296.600203 575.239324,297.232912 C573.869636,298.210792 569.388618,304.163892 560.925146,317.948799 C560.788238,318.171813 560.709486,318.290837 560.70161,318.301487 L559.778389,320.075577 L557.558174,324.954952 L558.768539,317.865482 L558.844869,317.401286 C559.042356,316.208536 559.392501,314.106816 559.537285,313.437773 L559.892277,311.899226 C560.463535,309.429783 561.653304,304.293566 561.810809,303.385848 C562.320277,300.377036 562.119761,298.366776 561.19654,297.243562 C560.513816,296.416029 559.37251,296.013851 557.70538,296.013851 C554.635244,296.013851 552.164233,298.342971 547.904328,305.245761 C547.239778,306.325125 544.751198,310.443996 542.784809,313.704638 C540.237468,317.930632 537.926385,321.056589 537.926385,321.056589 L538.463719,315.406688 C538.875049,312.869588 540.414964,301.217098 540.435561,300.670212 C540.430109,298.213297 539.212474,297.06941 536.601525,297.06941 C535.538972,297.06941 532.948014,297.303074 531.862441,299.466186 C530.867737,301.443244 528.107158,310.398265 526.764731,324.092964 C526.764731,324.092964 516.081044,334.413008 504.658901,334.413008 C500.449883,334.413008 497.118651,332.769218 495.911315,329.558064 C495.911315,329.558064 502.021904,326.371969 504.923631,324.356071 C512.354233,319.19417 517.759684,313.933917 517.759684,307.178968 C517.759684,298.914288 510.170365,295.192583 503.900454,296.013851 C493.133169,297.423978 484.032407,308.741947 484.032407,321.888507 C484.032407,334.255144 490.900232,343.167567 502.85244,343.167567 C516.69592,343.167567 526.251628,331.713659 526.251628,331.713659 L525.963878,336.941963 C525.785776,339.666996 526.905274,343.167567 531.463832,343.167567 C532.674198,343.167567 534.884115,342.781051 536.058738,340.192583 C543.150099,324.649247 550.576461,312.322076 550.649761,312.200546 L550.903587,311.780202 L552.192099,309.300109 L554.110631,306.088955 L552.57314,312.981095 C552.293871,314.553471 549.848303,328.537587 549.498157,334.703678 C549.317632,337.81648 549.315209,340.879792 550.527998,342.192193 C551.142267,342.859356 552.129097,343.167567 553.630847,343.167567 C556.987521,343.167567 559.070222,342.003007 559.8214,339.704583 C565.286218,323.142022 571.175088,311.966882 571.423462,311.497675 L571.654267,311.064176 L574.744394,305.017735 C574.744394,305.017735 572.306701,318.811412 572.306701,328.2181 C572.306701,332.714091 573.188729,340.899212 579.575558,342.454047 C589.4069,344.848317 595.447218,334.643539 595.447218,334.643539 L596.08693,336.431411 C598.892943,341.154801 603.556303,343.653061 609.574206,343.653061 C622.043758,343.653061 630.101957,333.938163 630.101957,318.900994 C630.101957,309.571359 625.814185,304.226536 625.814185,304.226536 C625.814185,304.226536 630.57326,305.901648 634.068054,308.411184 C637.854233,311.129326 640.543328,314.008464 640.543328,314.008464 L640.449431,314.623006 C640.33736,315.339032 640.236193,316.060069 640.134421,316.78925 C639.741264,319.674026 639.394147,322.698499 639.099734,325.782485 C638.828341,328.656611 638.688403,331.255728 638.688403,333.50529 C638.688403,334.872191 638.76231,336.132597 638.919209,337.362308 C639.056117,338.508701 639.337809,339.554236 639.751562,340.461954 C639.883624,340.739469 641.124279,343.167567 644.259841,343.167567 C646.35284,343.167567 647.696479,342.408943 648.687549,340.099243 C658.377742,317.506529 666.140317,310.266086 666.822435,309.546301 C668.621021,307.648801 667.809264,311.180694 667.809264,311.180694 L667.738387,311.645516 C667.725665,311.720689 666.528021,319.372707 666.259051,321.699947 C665.987658,323.995239 665.85075,326.187168 665.85075,328.2181 C665.85075,334.51136 667.254968,341.68352 674.604394,342.816758 C684.650791,344.366581 688.131652,336.500947 688.131652,336.500947 C688.131652,336.500947 691.766383,343.167567 700.34859,343.167567 C712.933241,343.167567 716.829067,333.541624 716.829067,333.541624 C718.154532,339.333101 720.513473,342.454047 726.187894,342.454047 C732.329984,342.454047 736.596552,335.550004 736.596552,335.550004 C736.596552,335.550004 740.149502,343.167567 748.831664,343.167567 C758.88109,343.167567 764.018782,335.489239 764.229597,335.167873 L765.395739,333.344294 C765.395739,333.344294 768.667603,341.627767 777.105632,342.103864 L777.105632,342.103864 Z M445.56076,339.966814 C436.383802,339.650659 435.877556,333.021665 444.305796,331.309964 C452.007249,329.746084 458.430556,332.249378 458.430556,332.249378 C458.430556,332.249378 456.487023,340.343907 445.56076,339.966814 L445.56076,339.966814 Z M485.30756,270.194272 C490.384323,270.618525 490.002801,277.800484 488.621283,282.303514 C484.572711,295.504055 474.888889,295.897959 474.888889,295.897959 C474.888889,295.897959 477.952463,269.579705 485.30756,270.194272 L485.30756,270.194272 Z M471.573218,317.326147 C472.833574,309.363663 473.862965,301.779649 473.862965,301.779649 C473.862965,301.779649 490.226486,301.889958 495.799793,282.312768 C499.042948,270.919315 494.450187,261.209014 484.873893,261.003612 C475.204129,260.796308 467.713152,269.480235 464.202849,295.434386 C464.202849,295.434386 454.856315,294.183591 450.727292,286.70735 C448.774042,283.169877 445.82698,284.81626 446.746015,288.178127 C449.852883,299.546223 463.613678,301.376453 463.613678,301.376453 C463.613678,301.376453 463.043804,306.408795 462.192913,312.568943 C461.36735,318.545244 459.950203,326.064594 459.950203,326.064594 C459.950203,326.064594 451.26822,323.28026 442.030836,325.237282 C427.835248,328.245402 426.273371,346.097598 443.643368,347.860629 C464.012891,349.927325 467.859088,335.641765 467.859088,335.641765 C467.859088,335.641765 471.860869,337.613367 477.539707,342.763624 C483.833044,348.471128 486.708948,352.011137 488.013929,350.742592 C489.444342,349.351693 486.293452,344.494957 480.460235,338.301843 C473.859347,331.293462 469.290707,329.484786 469.290707,329.484786 C469.290707,329.484786 470.382815,324.848667 471.573218,317.326147 L471.573218,317.326147 Z" id="path-1"></path>
    </defs>
    <g id="lemonade-preview" stroke="none" fill="none">
        <mask id="mask-2" fill="white">
            <use xlink:href="#path-1"></use>
        </mask>
        <use id="Mask" fill="#4A4A4A" fill-rule="evenodd" xlink:href="#path-1"></use>
    </g>
</svg>