<?xml version="1.0" encoding="UTF-8"?>
<svg width="1256px" height="620px" viewBox="0 0 1256 620" version="1.1" xmlns="http://www.w3.org/2000/svg" xmlns:xlink="http://www.w3.org/1999/xlink">
    <title>engini-preview</title>
    <defs>
        <linearGradient x1="0%" y1="33.3577889%" x2="0%" y2="100%" id="linearGradient-1">
            <stop stop-color="#FFFFFF" stop-opacity="0" offset="0%"></stop>
            <stop stop-color="#FFFFFF" offset="100%"></stop>
        </linearGradient>
        <linearGradient x1="50%" y1="2.56739074e-14%" x2="50%" y2="100%" id="linearGradient-2">
            <stop stop-color="#FFFFFF" stop-opacity="0" offset="0%"></stop>
            <stop stop-color="#FFFFFF" offset="100%"></stop>
        </linearGradient>
    </defs>
    <g id="engini-preview" stroke="none" fill="none" fill-rule="evenodd" stroke-width="1">
        <g id="engini-full-logo-black" transform="translate(435, 255)">
            <g transform="translate(12.3776, 7.1759)">
                <g id="engini-symbol" fill-rule="nonzero">
                    <path d="M41.6931217,0 L83.3862434,23.9203404 L83.3862434,35.8414218 L41.6931217,59.7641472 L26.0582011,50.8057324 L26.0582011,56.7860784 L41.6931217,65.7504113 L83.3862434,41.8414118 L83.3862434,71.7253868 L41.6931217,95.6411008 L0,71.7253868 L0,23.9203404 L41.6931217,0 Z M41.6931217,11.9488836 L10.4232804,29.8867708 L10.4232804,65.7504113 L41.6931217,83.6933441 L72.962963,65.7504113 L72.962963,59.7769228 L41.6931217,77.7029026 L15.6349206,62.7655386 L15.6349206,32.8761111 L41.6931217,17.9281976 L67.7513228,32.8761111 L72.962963,29.8867708 L41.6931217,11.9488836 Z M41.6931217,29.8867708 L26.0582011,38.8520042 L41.6931217,47.8172375 L57.3280423,38.8520042 L41.6931217,29.8867708 Z" id="Shape" fill="#1F1E21"></path>
                    <path d="M83.3862434,41.8414118 L83.3862434,71.7253868 L41.6931217,95.6411008 L41.6931217,83.6933441 L72.962963,65.7504113 L72.962963,59.7769228 L41.6931217,77.7029026 L41.6931217,65.7504113 L83.3862434,41.8414118 Z M83.3862434,23.9203404 L83.3862434,35.8414218 L41.6931217,59.7641472 L41.6931217,47.821114 L83.3862434,23.9203404 Z" id="Shape" fill="url(#linearGradient-1)" opacity="0.5"></path>
                    <path d="M41.6931217,0 L83.3862434,23.9203404 L41.6931217,47.821114 L15.6349206,32.8828824 L15.6349206,32.8761111 L41.6931217,17.9281976 L67.7513228,32.8761111 L72.962963,29.8867708 L41.6931217,11.9488836 L10.4232804,29.8867708 L10.4232804,29.8954118 L0,23.9203404 L41.6931217,0 Z M41.6931217,29.8867708 L26.0582011,38.8520042 L41.6931217,47.8172375 L57.3280423,38.8520042 L41.6931217,29.8867708 Z" id="Shape" fill="url(#linearGradient-2)" opacity="0.5"></path>
                </g>
                <g id="engini-wordmark" transform="translate(106.8386, 8.3535)" fill="#1F1E21" fill-rule="nonzero">
                    <path d="M24.755291,53.7058824 C28.5634182,53.7058824 32.0246531,52.2306824 34.5913375,49.824245 L47.2154998,49.8241196 C43.2809233,58.2304703 34.7033739,64.0588235 24.755291,64.0588235 C11.0833213,64.0588235 0,53.0502956 0,39.4705882 C0,25.8908809 11.0833213,14.8823529 24.755291,14.8823529 C38.4272607,14.8823529 49.510582,25.8908809 49.510582,39.4705882 C49.510582,40.791851 49.4056598,42.0887732 49.2036396,43.3535834 L10.9628166,43.3531056 C12.6642866,49.3279751 18.1950577,53.7058824 24.755291,53.7058824 Z M24.755291,25.2352941 C18.6785277,25.2352941 13.4850811,28.991701 11.4002698,34.2942133 L38.1103122,34.2942133 C36.0255009,28.991701 30.8320543,25.2352941 24.755291,25.2352941 Z M131.593915,64.0588235 C118.641523,64.0588235 108.141534,53.0502956 108.141534,39.4705882 C108.141534,25.8908809 118.641523,14.8823529 131.593915,14.8823529 C137.600863,14.8823529 143.080338,17.2501091 147.229598,21.1439984 L147.228836,15.5294118 L157.652116,15.5294118 L157.652116,67.9411765 C157.652116,76.5178338 150.652124,83.4705882 142.017196,83.4705882 L115.958995,83.4705882 L115.958995,73.7647059 L139.411376,73.7647059 C143.72884,73.7647059 147.228836,70.2883286 147.228836,66 L147.229598,57.7971784 C143.080338,61.6910677 137.600863,64.0588235 131.593915,64.0588235 Z M132.896825,25.2352941 C124.981475,25.2352941 118.564815,31.6086524 118.564815,39.4705882 C118.564815,47.3325241 124.981475,53.7058824 132.896825,53.7058824 C140.812176,53.7058824 147.228836,47.3325241 147.228836,39.4705882 C147.228836,31.6086524 140.812176,25.2352941 132.896825,25.2352941 Z M89.8819249,35.588689 C89.8944459,35.3744394 89.9007937,35.1585442 89.9007937,34.9411765 C89.9007937,28.8660443 84.9424659,23.9411765 78.8260582,23.9411765 C72.7096505,23.9411765 67.7513228,28.8660443 67.7513228,34.9411765 C67.7513228,35.1585442 67.7576705,35.3744394 67.7701915,35.588689 L67.7513228,35.5882353 L67.7513228,63.4117647 L57.3280423,63.4117647 L57.3280423,15.5294118 L67.7513228,15.5294118 L67.7513228,19.9899497 C71.2089672,16.8137052 75.7749425,14.8823529 80.7804233,14.8823529 C91.5740832,14.8823529 100.324074,23.8629942 100.324074,34.9411765 C100.324074,35.1577539 100.32073,35.3735295 100.314091,35.5884521 L100.324074,35.5882353 L100.324074,63.4117647 L89.9007937,63.4117647 L89.9007937,35.5882353 L89.8819249,35.588689 Z M168.075397,15.5294118 L178.498677,15.5294118 L178.498677,63.4117647 L168.075397,63.4117647 L168.075397,15.5294118 Z M168.075397,0 L178.498677,0 L178.498677,10.3529412 L168.075397,10.3529412 L168.075397,0 Z M242.34127,15.5294118 L252.76455,15.5294118 L252.76455,63.4117647 L242.34127,63.4117647 L242.34127,15.5294118 Z M242.34127,0 L252.76455,0 L252.76455,10.3529412 L242.34127,10.3529412 L242.34127,0 Z M221.47584,35.588689 C221.488361,35.3744394 221.494709,35.1585442 221.494709,34.9411765 C221.494709,28.8660443 216.536381,23.9411765 210.419974,23.9411765 C204.303566,23.9411765 199.345238,28.8660443 199.345238,34.9411765 C199.345238,35.1585442 199.351586,35.3744394 199.364107,35.588689 L199.345238,35.5882353 L199.345238,63.4117647 L188.921958,63.4117647 L188.921958,15.5294118 L199.345238,15.5294118 L199.345238,19.9899497 C202.802883,16.8137052 207.368858,14.8823529 212.374339,14.8823529 C223.167999,14.8823529 231.917989,23.8629942 231.917989,34.9411765 C231.917989,35.1577539 231.914645,35.3735295 231.908007,35.5884521 L231.917989,35.5882353 L231.917989,63.4117647 L221.494709,63.4117647 L221.494709,35.5882353 L221.47584,35.588689 Z" id="Shape"></path>
                </g>
            </g>
        </g>
    </g>
</svg>