<?xml version="1.0" encoding="UTF-8"?>
<svg width="100px" height="100px" viewBox="0 0 100 100" version="1.1" xmlns="http://www.w3.org/2000/svg" xmlns:xlink="http://www.w3.org/1999/xlink">
    <title>lemonade-avatar-1</title>
    <g id="avatar-1" stroke="none" stroke-width="1" fill="none" fill-rule="evenodd">
        <rect id="Rectangle" fill="#FF0082" x="0" y="0" width="100" height="100" rx="50"></rect>
        <path d="M37.3579475,68.5940913 C32.2947238,68.4166997 32.0154117,64.6972308 36.6655438,63.7368109 C40.9146833,62.8593318 44.4586288,64.2639078 44.4586288,64.2639078 C44.4586288,64.2639078 43.3863191,68.8056748 37.3579475,68.5940913 L37.3579475,68.5940913 Z M59.503208,29.7623823 C62.3917535,29.9978112 62.1746774,33.9832609 61.3886299,36.4821053 C59.0850976,43.8074172 53.5752561,44.0260047 53.5752561,44.0260047 C53.5752561,44.0260047 55.3183498,29.4213438 59.503208,29.7623823 L59.503208,29.7623823 Z M51.9629578,56.2567952 C52.6762732,51.8382121 53.258871,47.6296525 53.258871,47.6296525 C53.258871,47.6296525 62.5200256,47.6908653 65.674313,36.8269909 C67.5098203,30.504477 64.9104854,25.1159869 59.4906536,25.0020043 C54.0179204,24.8869664 49.7783014,29.7058955 47.7915986,44.1085062 C47.7915986,44.1085062 42.5018018,43.4144087 40.164926,39.2656547 C39.0594578,37.3026218 37.3915285,38.2162413 37.9116685,40.0818261 C39.6700421,46.3902681 47.4581492,47.405909 47.4581492,47.405909 C47.4581492,47.405909 47.1356215,50.1984816 46.6540483,53.6169029 C46.1868096,56.9333027 45.3847564,61.105979 45.3847564,61.105979 C45.3847564,61.105979 40.4710714,59.5608821 35.2430498,60.6468826 C27.208866,62.3161641 26.324901,72.2227962 36.155684,73.2011464 C47.6840893,74.3480079 49.8608958,66.4205915 49.8608958,66.4205915 C49.8608958,66.4205915 52.1257575,67.5146834 55.3397724,70.3726904 C58.9015711,73.5399279 60.5292271,75.504368 61.2677987,74.8004202 C62.0773605,74.0285754 60.294072,71.3334508 56.9926845,67.896736 C53.2568232,64.007609 50.6711402,63.0039292 50.6711402,63.0039292 C50.6711402,63.0039292 51.2892331,60.4312304 51.9629578,56.2567952 L51.9629578,56.2567952 Z" id="Fill-1" fill="#FFFFFF"></path>
    </g>
</svg>