<?xml version="1.0" encoding="UTF-8"?>
<svg width="100px" height="100px" viewBox="0 0 100 100" version="1.1" xmlns="http://www.w3.org/2000/svg" xmlns:xlink="http://www.w3.org/1999/xlink">
    <title>kooply-avatar-1</title>
    <defs>
        <path d="M8.15033045,0.00258416093 L14.8926711,0 C17.8856269,0 18.970945,0.311628837 20.0651249,0.896802649 C21.1593048,1.48197646 22.0180235,2.34069524 22.6031974,3.43487513 C23.1883712,4.52905502 23.5,5.61437312 23.5,8.60732889 L23.5,14.8926711 C23.5,17.8856269 23.1883712,18.970945 22.6031974,20.0651249 C22.0180235,21.1593048 21.1593048,22.0180235 20.0651249,22.6031974 C18.970945,23.1883712 17.8856269,23.5 14.8926711,23.5 L8.60732889,23.5 C5.61437312,23.5 4.52905502,23.1883712 3.43487513,22.6031974 C2.34069524,22.0180235 1.48197646,21.1593048 0.896802649,20.0651249 C0.342427459,19.0285333 0.0335607779,17.9998955 0.00258416093,15.3496696 L0,8.60732889 C0,5.61437312 0.311628837,4.52905502 0.896802649,3.43487513 C1.48197646,2.34069524 2.34069524,1.48197646 3.43487513,0.896802649 C4.47146661,0.342427459 5.50010457,0.0335607779 8.15033045,0.00258416093 L8.15033045,0.00258416093 Z" id="path-1"></path>
        <linearGradient x1="50%" y1="0%" x2="50%" y2="100%" id="linearGradient-3">
            <stop stop-color="#FFFFFF" offset="0%"></stop>
            <stop stop-color="#FFFFFF" stop-opacity="0.2" offset="49.9380578%"></stop>
            <stop stop-color="#FFFFFF" offset="100%"></stop>
        </linearGradient>
        <path d="M8.15033045,0.00258416093 L14.8926711,0 C17.8856269,0 18.970945,0.311628837 20.0651249,0.896802649 C21.1593048,1.48197646 22.0180235,2.34069524 22.6031974,3.43487513 C23.1883712,4.52905502 23.5,5.61437312 23.5,8.60732889 L23.5,14.8926711 C23.5,17.8856269 23.1883712,18.970945 22.6031974,20.0651249 C22.0180235,21.1593048 21.1593048,22.0180235 20.0651249,22.6031974 C18.970945,23.1883712 17.8856269,23.5 14.8926711,23.5 L8.60732889,23.5 C5.61437312,23.5 4.52905502,23.1883712 3.43487513,22.6031974 C2.34069524,22.0180235 1.48197646,21.1593048 0.896802649,20.0651249 C0.342427459,19.0285333 0.0335607779,17.9998955 0.00258416093,15.3496696 L0,8.60732889 C0,5.61437312 0.311628837,4.52905502 0.896802649,3.43487513 C1.48197646,2.34069524 2.34069524,1.48197646 3.43487513,0.896802649 C4.47146661,0.342427459 5.50010457,0.0335607779 8.15033045,0.00258416093 L8.15033045,0.00258416093 Z" id="path-4"></path>
        <path d="M8.15033045,0.00258416093 L14.8926711,0 C17.8856269,0 18.970945,0.311628837 20.0651249,0.896802649 C21.1593048,1.48197646 22.0180235,2.34069524 22.6031974,3.43487513 C23.1883712,4.52905502 23.5,5.61437312 23.5,8.60732889 L23.5,14.8926711 C23.5,17.8856269 23.1883712,18.970945 22.6031974,20.0651249 C22.0180235,21.1593048 21.1593048,22.0180235 20.0651249,22.6031974 C18.970945,23.1883712 17.8856269,23.5 14.8926711,23.5 L8.60732889,23.5 C5.61437312,23.5 4.52905502,23.1883712 3.43487513,22.6031974 C2.34069524,22.0180235 1.48197646,21.1593048 0.896802649,20.0651249 C0.342427459,19.0285333 0.0335607779,17.9998955 0.00258416093,15.3496696 L0,8.60732889 C0,5.61437312 0.311628837,4.52905502 0.896802649,3.43487513 C1.48197646,2.34069524 2.34069524,1.48197646 3.43487513,0.896802649 C4.47146661,0.342427459 5.50010457,0.0335607779 8.15033045,0.00258416093 L8.15033045,0.00258416093 Z" id="path-6"></path>
        <path d="M8.15033045,0.00258416093 L14.8926711,0 C17.8856269,0 18.970945,0.311628837 20.0651249,0.896802649 C21.1593048,1.48197646 22.0180235,2.34069524 22.6031974,3.43487513 C23.1883712,4.52905502 23.5,5.61437312 23.5,8.60732889 L23.5,14.8926711 C23.5,17.8856269 23.1883712,18.970945 22.6031974,20.0651249 C22.0180235,21.1593048 21.1593048,22.0180235 20.0651249,22.6031974 C18.970945,23.1883712 17.8856269,23.5 14.8926711,23.5 L8.60732889,23.5 C5.61437312,23.5 4.52905502,23.1883712 3.43487513,22.6031974 C2.34069524,22.0180235 1.48197646,21.1593048 0.896802649,20.0651249 C0.342427459,19.0285333 0.0335607779,17.9998955 0.00258416093,15.3496696 L0,8.60732889 C0,5.61437312 0.311628837,4.52905502 0.896802649,3.43487513 C1.48197646,2.34069524 2.34069524,1.48197646 3.43487513,0.896802649 C4.47146661,0.342427459 5.50010457,0.0335607779 8.15033045,0.00258416093 L8.15033045,0.00258416093 Z" id="path-8"></path>
        <path d="M8.15033045,0.00258416093 L14.8926711,0 C17.8856269,0 18.970945,0.311628837 20.0651249,0.896802649 C21.1593048,1.48197646 22.0180235,2.34069524 22.6031974,3.43487513 L22.7788518,3.78234637 C23.2505243,4.77868032 23.5,5.9294211 23.5,8.60732889 L23.5,14.8926711 L23.4896855,15.7766386 C23.4313629,18.1142131 23.1267738,19.0861217 22.6031974,20.0651249 C22.0180235,21.1593048 21.1593048,22.0180235 20.0651249,22.6031974 L19.7176537,22.7788518 C18.7213196,23.2505243 17.5705789,23.5 14.8926711,23.5 L8.60732889,23.5 C5.61437312,23.5 4.52905502,23.1883712 3.43487513,22.6031974 C2.34069524,22.0180235 1.48197646,21.1593048 0.896802649,20.0651249 C0.342427459,19.0285333 0.0335607779,17.9998955 0.00258416093,15.3496696 L0,8.60732889 C0,5.61437312 0.311628837,4.52905502 0.896802649,3.43487513 C1.48197646,2.34069524 2.34069524,1.48197646 3.43487513,0.896802649 C4.47146661,0.342427459 5.50010457,0.0335607779 8.15033045,0.00258416093 L8.15033045,0.00258416093 Z" id="path-10"></path>
        <linearGradient x1="93.1145936%" y1="7.79603635%" x2="10.0952486%" y2="88.7053703%" id="linearGradient-12">
            <stop stop-color="#FFFFFF" offset="0%"></stop>
            <stop stop-color="#FFFFFF" stop-opacity="0.2" offset="100%"></stop>
        </linearGradient>
        <path d="M8.15033045,0.00258416093 L14.8926711,0 C17.8856269,0 18.970945,0.311628837 20.0651249,0.896802649 C21.1593048,1.48197646 22.0180235,2.34069524 22.6031974,3.43487513 L22.7788518,3.78234637 C23.2505243,4.77868032 23.5,5.9294211 23.5,8.60732889 L23.5,14.8926711 L23.4896855,15.7766386 C23.4313629,18.1142131 23.1267738,19.0861217 22.6031974,20.0651249 C22.0180235,21.1593048 21.1593048,22.0180235 20.0651249,22.6031974 L19.7176537,22.7788518 C18.7213196,23.2505243 17.5705789,23.5 14.8926711,23.5 L8.60732889,23.5 C5.61437312,23.5 4.52905502,23.1883712 3.43487513,22.6031974 C2.34069524,22.0180235 1.48197646,21.1593048 0.896802649,20.0651249 C0.342427459,19.0285333 0.0335607779,17.9998955 0.00258416093,15.3496696 L0,8.60732889 C0,5.61437312 0.311628837,4.52905502 0.896802649,3.43487513 C1.48197646,2.34069524 2.34069524,1.48197646 3.43487513,0.896802649 C4.47146661,0.342427459 5.50010457,0.0335607779 8.15033045,0.00258416093 L8.15033045,0.00258416093 Z" id="path-13"></path>
        <path d="M8.15033045,0.00258416093 L14.8926711,3.4774639e-16 C17.8856269,3.4774639e-16 18.970945,0.311628837 20.0651249,0.896802649 C21.1593048,1.48197646 22.0180235,2.34069524 22.6031974,3.43487513 C23.1883712,4.52905502 23.5,5.61437312 23.5,8.60732889 L23.5,14.8926711 C23.5,17.8856269 23.1883712,18.970945 22.6031974,20.0651249 C22.0180235,21.1593048 21.1593048,22.0180235 20.0651249,22.6031974 C18.970945,23.1883712 17.8856269,23.5 14.8926711,23.5 L8.60732889,23.5 C5.61437312,23.5 4.52905502,23.1883712 3.43487513,22.6031974 C2.34069524,22.0180235 1.48197646,21.1593048 0.896802649,20.0651249 C0.342427459,19.0285333 0.0335607779,17.9998955 0.00258416093,15.3496696 L2.31830926e-16,8.60732889 C2.31830926e-16,5.61437312 0.311628837,4.52905502 0.896802649,3.43487513 C1.48197646,2.34069524 2.34069524,1.48197646 3.43487513,0.896802649 C4.47146661,0.342427459 5.50010457,0.0335607779 8.15033045,0.00258416093 L8.15033045,0.00258416093 Z" id="path-15"></path>
        <linearGradient x1="95.7887787%" y1="94.4514597%" x2="12.5324806%" y2="10.1051772%" id="linearGradient-17">
            <stop stop-color="#FFFFFF" offset="0%"></stop>
            <stop stop-color="#FFFFFF" stop-opacity="0.2" offset="100%"></stop>
        </linearGradient>
        <path d="M8.15033045,0.00258416093 L14.8926711,3.4774639e-16 C17.8856269,3.4774639e-16 18.970945,0.311628837 20.0651249,0.896802649 C21.1593048,1.48197646 22.0180235,2.34069524 22.6031974,3.43487513 C23.1883712,4.52905502 23.5,5.61437312 23.5,8.60732889 L23.5,14.8926711 C23.5,17.8856269 23.1883712,18.970945 22.6031974,20.0651249 C22.0180235,21.1593048 21.1593048,22.0180235 20.0651249,22.6031974 C18.970945,23.1883712 17.8856269,23.5 14.8926711,23.5 L8.60732889,23.5 C5.61437312,23.5 4.52905502,23.1883712 3.43487513,22.6031974 C2.34069524,22.0180235 1.48197646,21.1593048 0.896802649,20.0651249 C0.342427459,19.0285333 0.0335607779,17.9998955 0.00258416093,15.3496696 L2.31830926e-16,8.60732889 C2.31830926e-16,5.61437312 0.311628837,4.52905502 0.896802649,3.43487513 C1.48197646,2.34069524 2.34069524,1.48197646 3.43487513,0.896802649 C4.47146661,0.342427459 5.50010457,0.0335607779 8.15033045,0.00258416093 L8.15033045,0.00258416093 Z" id="path-18"></path>
    </defs>
    <g id="avatar-1" stroke="none" stroke-width="1" fill="none" fill-rule="evenodd">
        <rect id="Rectangle" fill="#F1F1F4" x="0" y="0" width="100" height="100" rx="50"></rect>
        <g id="1-kooply-logomark" transform="translate(25, 25)">
            <g id="Rectangle">
                <g id="Mask" fill="#F59300" fill-rule="nonzero">
                    <path d="M8.15033045,0.00258416093 L14.8926711,0 C17.8856269,0 18.970945,0.311628837 20.0651249,0.896802649 C21.1593048,1.48197646 22.0180235,2.34069524 22.6031974,3.43487513 C23.1883712,4.52905502 23.5,5.61437312 23.5,8.60732889 L23.5,14.8926711 C23.5,17.8856269 23.1883712,18.970945 22.6031974,20.0651249 C22.0180235,21.1593048 21.1593048,22.0180235 20.0651249,22.6031974 C18.970945,23.1883712 17.8856269,23.5 14.8926711,23.5 L8.60732889,23.5 C5.61437312,23.5 4.52905502,23.1883712 3.43487513,22.6031974 C2.34069524,22.0180235 1.48197646,21.1593048 0.896802649,20.0651249 C0.342427459,19.0285333 0.0335607779,17.9998955 0.00258416093,15.3496696 L0,8.60732889 C0,5.61437312 0.311628837,4.52905502 0.896802649,3.43487513 C1.48197646,2.34069524 2.34069524,1.48197646 3.43487513,0.896802649 C4.47146661,0.342427459 5.50010457,0.0335607779 8.15033045,0.00258416093 L8.15033045,0.00258416093 Z" id="path-1"></path>
                </g>
                <g id="Mask-Clipped">
                    <mask id="mask-2" fill="white">
                        <use xlink:href="#path-1"></use>
                    </mask>
                    <g id="path-1"></g>
                    <path d="M11.75,8.39285714 C13.6040988,8.39285714 15.1071429,9.8959012 15.1071429,11.75 L15.1071429,38.6071429 C15.1071429,40.4612417 13.6040988,41.9642857 11.75,41.9642857 C9.8959012,41.9642857 8.39285714,40.4612417 8.39285714,38.6071429 L8.39285714,11.75 C8.39285714,9.8959012 9.8959012,8.39285714 11.75,8.39285714 Z" id="Mask" fill="url(#linearGradient-3)" fill-rule="nonzero" mask="url(#mask-2)"></path>
                </g>
                <g id="Oval-Clipped">
                    <mask id="mask-5" fill="white">
                        <use xlink:href="#path-4"></use>
                    </mask>
                    <g id="path-1"></g>
                    <circle id="Oval" fill="#FFFFFF" fill-rule="nonzero" mask="url(#mask-5)" cx="11.75" cy="11.75" r="3.35714286"></circle>
                </g>
            </g>
            <g id="Rectangle" transform="translate(0, 26.5)">
                <g id="path-4-link" fill="#0080FF" fill-rule="nonzero">
                    <path d="M8.15033045,0.00258416093 L14.8926711,0 C17.8856269,0 18.970945,0.311628837 20.0651249,0.896802649 C21.1593048,1.48197646 22.0180235,2.34069524 22.6031974,3.43487513 C23.1883712,4.52905502 23.5,5.61437312 23.5,8.60732889 L23.5,14.8926711 C23.5,17.8856269 23.1883712,18.970945 22.6031974,20.0651249 C22.0180235,21.1593048 21.1593048,22.0180235 20.0651249,22.6031974 C18.970945,23.1883712 17.8856269,23.5 14.8926711,23.5 L8.60732889,23.5 C5.61437312,23.5 4.52905502,23.1883712 3.43487513,22.6031974 C2.34069524,22.0180235 1.48197646,21.1593048 0.896802649,20.0651249 C0.342427459,19.0285333 0.0335607779,17.9998955 0.00258416093,15.3496696 L0,8.60732889 C0,5.61437312 0.311628837,4.52905502 0.896802649,3.43487513 C1.48197646,2.34069524 2.34069524,1.48197646 3.43487513,0.896802649 C4.47146661,0.342427459 5.50010457,0.0335607779 8.15033045,0.00258416093 L8.15033045,0.00258416093 Z" id="path-4"></path>
                </g>
                <g id="Mask-Clipped">
                    <mask id="mask-7" fill="white">
                        <use xlink:href="#path-6"></use>
                    </mask>
                    <g id="path-4"></g>
                    <path d="M11.75,-18.4642857 C13.6040988,-18.4642857 15.1071429,-16.9612417 15.1071429,-15.1071429 L15.1071429,11.75 C15.1071429,13.6040988 13.6040988,15.1071429 11.75,15.1071429 C9.8959012,15.1071429 8.39285714,13.6040988 8.39285714,11.75 L8.39285714,-15.1071429 C8.39285714,-16.9612417 9.8959012,-18.4642857 11.75,-18.4642857 Z" id="Mask" fill="url(#linearGradient-3)" fill-rule="nonzero" mask="url(#mask-7)"></path>
                </g>
                <g id="Oval-Clipped">
                    <mask id="mask-9" fill="white">
                        <use xlink:href="#path-8"></use>
                    </mask>
                    <g id="path-4"></g>
                    <circle id="Oval" fill="#FFFFFF" fill-rule="nonzero" mask="url(#mask-9)" cx="11.75" cy="11.75" r="3.35714286"></circle>
                </g>
            </g>
            <g id="Rectangle" transform="translate(26.5, 0)">
                <g id="path-6-link" fill="#FF374C" fill-rule="nonzero">
                    <path d="M8.15033045,0.00258416093 L14.8926711,0 C17.8856269,0 18.970945,0.311628837 20.0651249,0.896802649 C21.1593048,1.48197646 22.0180235,2.34069524 22.6031974,3.43487513 L22.7788518,3.78234637 C23.2505243,4.77868032 23.5,5.9294211 23.5,8.60732889 L23.5,14.8926711 L23.4896855,15.7766386 C23.4313629,18.1142131 23.1267738,19.0861217 22.6031974,20.0651249 C22.0180235,21.1593048 21.1593048,22.0180235 20.0651249,22.6031974 L19.7176537,22.7788518 C18.7213196,23.2505243 17.5705789,23.5 14.8926711,23.5 L8.60732889,23.5 C5.61437312,23.5 4.52905502,23.1883712 3.43487513,22.6031974 C2.34069524,22.0180235 1.48197646,21.1593048 0.896802649,20.0651249 C0.342427459,19.0285333 0.0335607779,17.9998955 0.00258416093,15.3496696 L0,8.60732889 C0,5.61437312 0.311628837,4.52905502 0.896802649,3.43487513 C1.48197646,2.34069524 2.34069524,1.48197646 3.43487513,0.896802649 C4.47146661,0.342427459 5.50010457,0.0335607779 8.15033045,0.00258416093 L8.15033045,0.00258416093 Z" id="path-6"></path>
                </g>
                <g id="Clipped">
                    <mask id="mask-11" fill="white">
                        <use xlink:href="#path-10"></use>
                    </mask>
                    <g id="path-6"></g>
                    <path d="M14.108665,9.37614152 C15.4197109,10.6871874 15.4197109,12.8128126 14.108665,14.1238585 L4.61323112,23.6192924 C3.30218529,24.9303382 1.17656,24.9303382 -0.134485838,23.6192924 C-1.44553167,22.3082465 -1.44553167,20.1826213 -0.134485838,18.8715755 L9.36094809,9.37614152 C10.6029915,8.13409809 12.5761256,8.06872738 13.895126,9.18002941 L14.108665,9.37614152 Z" id="Path" fill="url(#linearGradient-12)" fill-rule="nonzero" mask="url(#mask-11)"></path>
                </g>
                <g id="Oval-Clipped">
                    <mask id="mask-14" fill="white">
                        <use xlink:href="#path-13"></use>
                    </mask>
                    <g id="path-6"></g>
                    <circle id="Oval" fill="#FFFFFF" fill-rule="nonzero" mask="url(#mask-14)" cx="11.75" cy="11.75" r="3.35714286"></circle>
                </g>
            </g>
            <g id="Rectangle" transform="translate(26.5, 26.5)">
                <g id="path-9-link" fill="#D23EEA" fill-rule="nonzero">
                    <path d="M8.15033045,0.00258416093 L14.8926711,3.4774639e-16 C17.8856269,3.4774639e-16 18.970945,0.311628837 20.0651249,0.896802649 C21.1593048,1.48197646 22.0180235,2.34069524 22.6031974,3.43487513 C23.1883712,4.52905502 23.5,5.61437312 23.5,8.60732889 L23.5,14.8926711 C23.5,17.8856269 23.1883712,18.970945 22.6031974,20.0651249 C22.0180235,21.1593048 21.1593048,22.0180235 20.0651249,22.6031974 C18.970945,23.1883712 17.8856269,23.5 14.8926711,23.5 L8.60732889,23.5 C5.61437312,23.5 4.52905502,23.1883712 3.43487513,22.6031974 C2.34069524,22.0180235 1.48197646,21.1593048 0.896802649,20.0651249 C0.342427459,19.0285333 0.0335607779,17.9998955 0.00258416093,15.3496696 L2.31830926e-16,8.60732889 C2.31830926e-16,5.61437312 0.311628837,4.52905502 0.896802649,3.43487513 C1.48197646,2.34069524 2.34069524,1.48197646 3.43487513,0.896802649 C4.47146661,0.342427459 5.50010457,0.0335607779 8.15033045,0.00258416093 L8.15033045,0.00258416093 Z" id="path-9"></path>
                </g>
                <g id="Clipped">
                    <mask id="mask-16" fill="white">
                        <use xlink:href="#path-15"></use>
                    </mask>
                    <g id="path-9"></g>
                    <path d="M14.108665,14.1238585 C12.7976192,15.4349043 10.6719939,15.4349043 9.36094809,14.1238585 L-0.134485838,4.62842456 C-1.44553167,3.31737873 -1.44553167,1.19175344 -0.134485838,-0.119292399 C1.17656,-1.43033823 3.30218529,-1.43033823 4.61323112,-0.119292399 L14.108665,9.37614152 C15.3507085,10.6181849 15.4160792,12.5913191 14.3047772,13.9103194 L14.108665,14.1238585 Z" id="Path" fill="url(#linearGradient-17)" fill-rule="nonzero" mask="url(#mask-16)"></path>
                </g>
                <g id="Oval-Clipped">
                    <mask id="mask-19" fill="white">
                        <use xlink:href="#path-18"></use>
                    </mask>
                    <g id="path-9"></g>
                    <circle id="Oval" fill="#FFFFFF" fill-rule="nonzero" mask="url(#mask-19)" cx="11.75" cy="11.75" r="3.35714286"></circle>
                </g>
            </g>
        </g>
    </g>
</svg>