<?xml version="1.0" encoding="UTF-8"?>
<svg width="100px" height="100px" viewBox="0 0 100 100" version="1.1" xmlns="http://www.w3.org/2000/svg" xmlns:xlink="http://www.w3.org/1999/xlink">
    <title>astropay-avatar-1</title>
    <g id="avatar-1" stroke="none" stroke-width="1" fill="none" fill-rule="evenodd">
        <rect id="Rectangle" fill="#F5F7F2" x="0" y="0" width="100" height="100" rx="50"></rect>
        <g id="astropay-logomark-1" transform="translate(24, 24)" fill-rule="nonzero">
            <path d="M32.9968361,0 L42.8723443,24.3263594 C41.2177751,24.1480162 39.5370883,24.056512 37.8349634,24.056512 C35.3493536,24.056512 32.9094598,24.251642 30.5298548,24.6273743 L26.7677524,15.3457285 L22.1339066,26.7762255 C15.7959081,29.0517865 10.0989552,32.6658057 5.38620448,37.276185 L20.494104,0 L32.9968361,0 Z" id="Path" fill="#053634"></path>
            <path d="M37.8404412,27.904808 C40.1159732,27.904808 42.3497,28.0832205 44.5283162,28.4267788 L50,41.9298775 C46.2682292,40.3350149 42.1577508,39.4519338 37.8403861,39.4519338 C28.085874,39.4519338 19.3874631,43.9598489 13.7268493,51 L0,51 C7.02980851,37.2905229 21.3358759,27.904808 37.8404412,27.904808 Z" id="Path" fill="#00DBBF"></path>
        </g>
    </g>
</svg>