<?xml version="1.0" encoding="UTF-8"?>
<svg width="1256px" height="620px" viewBox="0 0 1256 620" version="1.1" xmlns="http://www.w3.org/2000/svg" xmlns:xlink="http://www.w3.org/1999/xlink">
    <title>tenzai-preview</title>
    <defs>
        <radialGradient cx="50%" cy="50%" fx="50%" fy="50%" r="55.573464%" gradientTransform="translate(0.5, 0.5), scale(1, 0.8998), rotate(-90), translate(-0.5, -0.5)" id="radialGradient-1">
            <stop stop-color="#19191A" stop-opacity="0.5" offset="0%"></stop>
            <stop stop-color="#19191A" offset="100%"></stop>
        </radialGradient>
    </defs>
    <g id="tenzai-preview" stroke="none" fill="none" fill-rule="evenodd" stroke-width="1">
        <g id="tenzai-full-logo-blue-white" transform="translate(449, 273)">
            <path d="M98.1942857,22.6111111 L98.1942857,10.2777778 L143.2,10.2777778 L143.2,22.6111111 L126.834286,22.6111111 L126.834286,63.7222222 L114.56,63.7222222 L114.56,22.6111111 L98.1942857,22.6111111 Z M149.337143,10.2777778 L188.205714,10.2777778 L188.205714,22.6111111 L161.611429,22.6111111 L161.611429,30.8333333 L186.16,30.8333333 L186.16,43.1666667 L161.611429,43.1666667 L161.611429,51.3888889 L188.205714,51.3888889 L188.205714,63.7222222 L149.337143,63.7222222 L149.337143,10.2777778 Z M270.034286,22.6111111 L247.531429,22.6111111 L247.531429,10.2777778 L286.4,10.2777778 L286.4,22.6111111 L263.897143,51.3888889 L286.4,51.3888889 L286.4,63.7222222 L247.531429,63.7222222 L247.531429,51.3888889 L270.034286,22.6111111 Z M304.811429,63.7222222 L290.491429,63.7222222 L306.857143,10.2777778 L325.268571,10.2777778 L341.634286,63.7222222 L327.314286,63.7222222 L324.010457,51.3888889 L308.115257,51.3888889 L304.811429,63.7222222 Z M316.062857,21.7313333 L311.421131,39.0555556 L320.704583,39.0555556 L316.062857,21.7313333 Z M239.348571,63.7222222 L227.074286,63.7222222 L208.662857,32.8888889 L208.662857,63.7222222 L196.388571,63.7222222 L196.388571,10.2777778 L208.662857,10.2777778 L227.074286,41.1111111 L227.074286,10.2777778 L239.348571,10.2777778 L239.348571,63.7222222 Z M345.725714,10.2777778 L358,10.2777778 L358,63.7222222 L345.725714,63.7222222 L345.725714,10.2777778 Z" id="Shape" fill="#19191A"></path>
            <g id="tenzai-symbol-black">
                <path d="M53.6831384,45.2201667 L67.2001645,58.8024591 L58.5209338,67.5234427 L45.0052184,53.9418889 L45.0057143,45.2222222 L53.6831384,45.2201667 Z M19.9595384,45.2201667 L28.64,45.2222222 L28.6395041,53.9418889 L15.1247805,67.5234427 L6.44554983,58.8024591 L19.9595384,45.2201667 Z M42.96,0 L42.96,22.1095556 L58.5209338,6.47655729 L67.2001645,15.197541 L53.6872298,28.7757222 L19.9615841,28.7757222 L6.44554983,15.197541 L15.1247805,6.47655729 L30.6857143,22.1095556 L30.6857143,0 L42.96,0 Z" id="Shape" fill="url(#radialGradient-1)" fill-rule="nonzero"></path>
                <polygon id="Path" fill="#19191A" points="73.6457143 30.8333333 73.6457143 43.1666667 42.96 43.1666667 42.96 74 30.6857143 74 30.6857143 43.1666667 0 43.1666667 0 30.8333333"></polygon>
            </g>
        </g>
    </g>
</svg>