<?xml version="1.0" encoding="UTF-8"?>
<svg width="1256px" height="620px" viewBox="0 0 1256 620" version="1.1" xmlns="http://www.w3.org/2000/svg" xmlns:xlink="http://www.w3.org/1999/xlink">
    <title>kooply-preview</title>
    <defs>
        <path d="M12.8528365,0.0040751474 L23.4853136,0 C28.2051188,0 29.9166342,0.491429705 31.6421243,1.41423196 C33.3676146,2.33703422 34.7217893,3.69120902 35.6445916,5.41669921 C36.5673939,7.1421894 37.0588235,8.85370479 37.0588235,13.5735099 L37.0588235,23.4853136 C37.0588235,28.2051188 36.5673939,29.9166342 35.6445916,31.6421243 C34.7217893,33.3676146 33.3676146,34.7217893 31.6421243,35.6445916 C29.9166342,36.5673939 28.2051188,37.0588235 23.4853136,37.0588235 L13.5735099,37.0588235 C8.85370479,37.0588235 7.1421894,36.5673939 5.41669921,35.6445916 C3.69120902,34.7217893 2.33703422,33.3676146 1.41423196,31.6421243 C0.539998245,30.0074493 0.0529243806,28.3853171 0.0040751474,24.205987 L0,13.5735099 C0,8.85370479 0.491429705,7.1421894 1.41423196,5.41669921 C2.33703422,3.69120902 3.69120902,2.33703422 5.41669921,1.41423196 C7.05137413,0.539998245 8.67350658,0.0529243806 12.8528365,0.0040751474 L12.8528365,0.0040751474 Z" id="path-1"></path>
        <linearGradient x1="50%" y1="0%" x2="50%" y2="100%" id="linearGradient-3">
            <stop stop-color="#FFFFFF" offset="0%"></stop>
            <stop stop-color="#FFFFFF" stop-opacity="0.2" offset="49.9380578%"></stop>
            <stop stop-color="#FFFFFF" offset="100%"></stop>
        </linearGradient>
        <path d="M12.8528365,0.0040751474 L23.4853136,0 C28.2051188,0 29.9166342,0.491429705 31.6421243,1.41423196 C33.3676146,2.33703422 34.7217893,3.69120902 35.6445916,5.41669921 C36.5673939,7.1421894 37.0588235,8.85370479 37.0588235,13.5735099 L37.0588235,23.4853136 C37.0588235,28.2051188 36.5673939,29.9166342 35.6445916,31.6421243 C34.7217893,33.3676146 33.3676146,34.7217893 31.6421243,35.6445916 C29.9166342,36.5673939 28.2051188,37.0588235 23.4853136,37.0588235 L13.5735099,37.0588235 C8.85370479,37.0588235 7.1421894,36.5673939 5.41669921,35.6445916 C3.69120902,34.7217893 2.33703422,33.3676146 1.41423196,31.6421243 C0.539998245,30.0074493 0.0529243806,28.3853171 0.0040751474,24.205987 L0,13.5735099 C0,8.85370479 0.491429705,7.1421894 1.41423196,5.41669921 C2.33703422,3.69120902 3.69120902,2.33703422 5.41669921,1.41423196 C7.05137413,0.539998245 8.67350658,0.0529243806 12.8528365,0.0040751474 L12.8528365,0.0040751474 Z" id="path-4"></path>
        <path d="M12.8528365,0.0040751474 L23.4853136,0 C28.2051188,0 29.9166342,0.491429705 31.6421243,1.41423196 C33.3676146,2.33703422 34.7217893,3.69120902 35.6445916,5.41669921 C36.5673939,7.1421894 37.0588235,8.85370479 37.0588235,13.5735099 L37.0588235,23.4853136 C37.0588235,28.2051188 36.5673939,29.9166342 35.6445916,31.6421243 C34.7217893,33.3676146 33.3676146,34.7217893 31.6421243,35.6445916 C29.9166342,36.5673939 28.2051188,37.0588235 23.4853136,37.0588235 L13.5735099,37.0588235 C8.85370479,37.0588235 7.1421894,36.5673939 5.41669921,35.6445916 C3.69120902,34.7217893 2.33703422,33.3676146 1.41423196,31.6421243 C0.539998245,30.0074493 0.0529243806,28.3853171 0.0040751474,24.205987 L0,13.5735099 C0,8.85370479 0.491429705,7.1421894 1.41423196,5.41669921 C2.33703422,3.69120902 3.69120902,2.33703422 5.41669921,1.41423196 C7.05137413,0.539998245 8.67350658,0.0529243806 12.8528365,0.0040751474 L12.8528365,0.0040751474 Z" id="path-6"></path>
        <path d="M12.8528365,0.0040751474 L23.4853136,0 C28.2051188,0 29.9166342,0.491429705 31.6421243,1.41423196 C33.3676146,2.33703422 34.7217893,3.69120902 35.6445916,5.41669921 C36.5673939,7.1421894 37.0588235,8.85370479 37.0588235,13.5735099 L37.0588235,23.4853136 C37.0588235,28.2051188 36.5673939,29.9166342 35.6445916,31.6421243 C34.7217893,33.3676146 33.3676146,34.7217893 31.6421243,35.6445916 C29.9166342,36.5673939 28.2051188,37.0588235 23.4853136,37.0588235 L13.5735099,37.0588235 C8.85370479,37.0588235 7.1421894,36.5673939 5.41669921,35.6445916 C3.69120902,34.7217893 2.33703422,33.3676146 1.41423196,31.6421243 C0.539998245,30.0074493 0.0529243806,28.3853171 0.0040751474,24.205987 L0,13.5735099 C0,8.85370479 0.491429705,7.1421894 1.41423196,5.41669921 C2.33703422,3.69120902 3.69120902,2.33703422 5.41669921,1.41423196 C7.05137413,0.539998245 8.67350658,0.0529243806 12.8528365,0.0040751474 L12.8528365,0.0040751474 Z" id="path-8"></path>
        <path d="M12.8528365,0.0040751474 L23.4853136,0 C28.2051188,0 29.9166342,0.491429705 31.6421243,1.41423196 C33.3676146,2.33703422 34.7217893,3.69120902 35.6445916,5.41669921 L35.9215936,5.96465134 C36.6654076,7.5358413 37.0588235,9.35052639 37.0588235,13.5735099 L37.0588235,23.4853136 L37.0425579,24.8793049 C36.9505848,28.5655926 36.4702566,30.0982646 35.6445916,31.6421243 C34.7217893,33.3676146 33.3676146,34.7217893 31.6421243,35.6445916 L31.0941723,35.9215936 C29.5229822,36.6654076 27.7082971,37.0588235 23.4853136,37.0588235 L13.5735099,37.0588235 C8.85370479,37.0588235 7.1421894,36.5673939 5.41669921,35.6445916 C3.69120902,34.7217893 2.33703422,33.3676146 1.41423196,31.6421243 C0.539998245,30.0074493 0.0529243806,28.3853171 0.0040751474,24.205987 L0,13.5735099 C0,8.85370479 0.491429705,7.1421894 1.41423196,5.41669921 C2.33703422,3.69120902 3.69120902,2.33703422 5.41669921,1.41423196 C7.05137413,0.539998245 8.67350658,0.0529243806 12.8528365,0.0040751474 L12.8528365,0.0040751474 Z" id="path-10"></path>
        <linearGradient x1="93.1145936%" y1="7.79603635%" x2="10.0952486%" y2="88.7053703%" id="linearGradient-12">
            <stop stop-color="#FFFFFF" offset="0%"></stop>
            <stop stop-color="#FFFFFF" stop-opacity="0.2" offset="100%"></stop>
        </linearGradient>
        <path d="M12.8528365,0.0040751474 L23.4853136,0 C28.2051188,0 29.9166342,0.491429705 31.6421243,1.41423196 C33.3676146,2.33703422 34.7217893,3.69120902 35.6445916,5.41669921 L35.9215936,5.96465134 C36.6654076,7.5358413 37.0588235,9.35052639 37.0588235,13.5735099 L37.0588235,23.4853136 L37.0425579,24.8793049 C36.9505848,28.5655926 36.4702566,30.0982646 35.6445916,31.6421243 C34.7217893,33.3676146 33.3676146,34.7217893 31.6421243,35.6445916 L31.0941723,35.9215936 C29.5229822,36.6654076 27.7082971,37.0588235 23.4853136,37.0588235 L13.5735099,37.0588235 C8.85370479,37.0588235 7.1421894,36.5673939 5.41669921,35.6445916 C3.69120902,34.7217893 2.33703422,33.3676146 1.41423196,31.6421243 C0.539998245,30.0074493 0.0529243806,28.3853171 0.0040751474,24.205987 L0,13.5735099 C0,8.85370479 0.491429705,7.1421894 1.41423196,5.41669921 C2.33703422,3.69120902 3.69120902,2.33703422 5.41669921,1.41423196 C7.05137413,0.539998245 8.67350658,0.0529243806 12.8528365,0.0040751474 L12.8528365,0.0040751474 Z" id="path-13"></path>
        <path d="M12.8528365,0.0040751474 L23.4853136,0 C28.2051188,0 29.9166342,0.491429705 31.6421243,1.41423196 C33.3676146,2.33703422 34.7217893,3.69120902 35.6445916,5.41669921 C36.5673939,7.1421894 37.0588235,8.85370479 37.0588235,13.5735099 L37.0588235,23.4853136 C37.0588235,28.2051188 36.5673939,29.9166342 35.6445916,31.6421243 C34.7217893,33.3676146 33.3676146,34.7217893 31.6421243,35.6445916 C29.9166342,36.5673939 28.2051188,37.0588235 23.4853136,37.0588235 L13.5735099,37.0588235 C8.85370479,37.0588235 7.1421894,36.5673939 5.41669921,35.6445916 C3.69120902,34.7217893 2.33703422,33.3676146 1.41423196,31.6421243 C0.539998245,30.0074493 0.0529243806,28.3853171 0.0040751474,24.205987 L0,13.5735099 C0,8.85370479 0.491429705,7.1421894 1.41423196,5.41669921 C2.33703422,3.69120902 3.69120902,2.33703422 5.41669921,1.41423196 C7.05137413,0.539998245 8.67350658,0.0529243806 12.8528365,0.0040751474 L12.8528365,0.0040751474 Z" id="path-15"></path>
        <linearGradient x1="95.7887787%" y1="94.4514597%" x2="12.5324806%" y2="10.1051772%" id="linearGradient-17">
            <stop stop-color="#FFFFFF" offset="0%"></stop>
            <stop stop-color="#FFFFFF" stop-opacity="0.2" offset="100%"></stop>
        </linearGradient>
        <path d="M12.8528365,0.0040751474 L23.4853136,0 C28.2051188,0 29.9166342,0.491429705 31.6421243,1.41423196 C33.3676146,2.33703422 34.7217893,3.69120902 35.6445916,5.41669921 C36.5673939,7.1421894 37.0588235,8.85370479 37.0588235,13.5735099 L37.0588235,23.4853136 C37.0588235,28.2051188 36.5673939,29.9166342 35.6445916,31.6421243 C34.7217893,33.3676146 33.3676146,34.7217893 31.6421243,35.6445916 C29.9166342,36.5673939 28.2051188,37.0588235 23.4853136,37.0588235 L13.5735099,37.0588235 C8.85370479,37.0588235 7.1421894,36.5673939 5.41669921,35.6445916 C3.69120902,34.7217893 2.33703422,33.3676146 1.41423196,31.6421243 C0.539998245,30.0074493 0.0529243806,28.3853171 0.0040751474,24.205987 L0,13.5735099 C0,8.85370479 0.491429705,7.1421894 1.41423196,5.41669921 C2.33703422,3.69120902 3.69120902,2.33703422 5.41669921,1.41423196 C7.05137413,0.539998245 8.67350658,0.0529243806 12.8528365,0.0040751474 L12.8528365,0.0040751474 Z" id="path-18"></path>
    </defs>
    <g id="kooply-preview" stroke="none" fill="none" fill-rule="evenodd" stroke-width="1">
        <g id="9-kooply-full-logo-negative" transform="translate(427, 265)">
            <g transform="translate(5.2941, 5.2941)">
                <g id="kooply-logomark">
                    <g id="Rectangle">
                        <g id="Mask" fill="#F59300">
                            <path d="M12.8528365,0.0040751474 L23.4853136,0 C28.2051188,0 29.9166342,0.491429705 31.6421243,1.41423196 C33.3676146,2.33703422 34.7217893,3.69120902 35.6445916,5.41669921 C36.5673939,7.1421894 37.0588235,8.85370479 37.0588235,13.5735099 L37.0588235,23.4853136 C37.0588235,28.2051188 36.5673939,29.9166342 35.6445916,31.6421243 C34.7217893,33.3676146 33.3676146,34.7217893 31.6421243,35.6445916 C29.9166342,36.5673939 28.2051188,37.0588235 23.4853136,37.0588235 L13.5735099,37.0588235 C8.85370479,37.0588235 7.1421894,36.5673939 5.41669921,35.6445916 C3.69120902,34.7217893 2.33703422,33.3676146 1.41423196,31.6421243 C0.539998245,30.0074493 0.0529243806,28.3853171 0.0040751474,24.205987 L0,13.5735099 C0,8.85370479 0.491429705,7.1421894 1.41423196,5.41669921 C2.33703422,3.69120902 3.69120902,2.33703422 5.41669921,1.41423196 C7.05137413,0.539998245 8.67350658,0.0529243806 12.8528365,0.0040751474 L12.8528365,0.0040751474 Z" id="path-1"></path>
                        </g>
                        <g id="Mask-Clipped">
                            <mask id="mask-2" fill="white">
                                <use xlink:href="#path-1"></use>
                            </mask>
                            <g id="path-1"></g>
                            <path d="M18.5294118,13.2352941 C21.4532722,13.2352941 23.8235294,15.6055513 23.8235294,18.5294118 L23.8235294,60.8823529 C23.8235294,63.8062134 21.4532722,66.1764706 18.5294118,66.1764706 C15.6055513,66.1764706 13.2352941,63.8062134 13.2352941,60.8823529 L13.2352941,18.5294118 C13.2352941,15.6055513 15.6055513,13.2352941 18.5294118,13.2352941 Z" id="Mask" fill="url(#linearGradient-3)" mask="url(#mask-2)"></path>
                        </g>
                        <g id="Oval-Clipped">
                            <mask id="mask-5" fill="white">
                                <use xlink:href="#path-4"></use>
                            </mask>
                            <g id="path-1"></g>
                            <circle id="Oval" fill="#FFFFFF" mask="url(#mask-5)" cx="18.5294118" cy="18.5294118" r="5.29411765"></circle>
                        </g>
                    </g>
                    <g id="Rectangle" transform="translate(0, 42.3529)">
                        <g id="path-4-link" fill="#0080FF">
                            <path d="M12.8528365,0.0040751474 L23.4853136,0 C28.2051188,0 29.9166342,0.491429705 31.6421243,1.41423196 C33.3676146,2.33703422 34.7217893,3.69120902 35.6445916,5.41669921 C36.5673939,7.1421894 37.0588235,8.85370479 37.0588235,13.5735099 L37.0588235,23.4853136 C37.0588235,28.2051188 36.5673939,29.9166342 35.6445916,31.6421243 C34.7217893,33.3676146 33.3676146,34.7217893 31.6421243,35.6445916 C29.9166342,36.5673939 28.2051188,37.0588235 23.4853136,37.0588235 L13.5735099,37.0588235 C8.85370479,37.0588235 7.1421894,36.5673939 5.41669921,35.6445916 C3.69120902,34.7217893 2.33703422,33.3676146 1.41423196,31.6421243 C0.539998245,30.0074493 0.0529243806,28.3853171 0.0040751474,24.205987 L0,13.5735099 C0,8.85370479 0.491429705,7.1421894 1.41423196,5.41669921 C2.33703422,3.69120902 3.69120902,2.33703422 5.41669921,1.41423196 C7.05137413,0.539998245 8.67350658,0.0529243806 12.8528365,0.0040751474 L12.8528365,0.0040751474 Z" id="path-4"></path>
                        </g>
                        <g id="Mask-Clipped">
                            <mask id="mask-7" fill="white">
                                <use xlink:href="#path-6"></use>
                            </mask>
                            <g id="path-4"></g>
                            <path d="M18.5294118,-29.1176471 C21.4532722,-29.1176471 23.8235294,-26.7473899 23.8235294,-23.8235294 L23.8235294,18.5294118 C23.8235294,21.4532722 21.4532722,23.8235294 18.5294118,23.8235294 C15.6055513,23.8235294 13.2352941,21.4532722 13.2352941,18.5294118 L13.2352941,-23.8235294 C13.2352941,-26.7473899 15.6055513,-29.1176471 18.5294118,-29.1176471 Z" id="Mask" fill="url(#linearGradient-3)" mask="url(#mask-7)"></path>
                        </g>
                        <g id="Oval-Clipped">
                            <mask id="mask-9" fill="white">
                                <use xlink:href="#path-8"></use>
                            </mask>
                            <g id="path-4"></g>
                            <circle id="Oval" fill="#FFFFFF" mask="url(#mask-9)" cx="18.5294118" cy="18.5294118" r="5.29411765"></circle>
                        </g>
                    </g>
                    <g id="Rectangle" transform="translate(42.3529, 0)">
                        <g id="path-6-link" fill="#FF374C">
                            <path d="M12.8528365,0.0040751474 L23.4853136,0 C28.2051188,0 29.9166342,0.491429705 31.6421243,1.41423196 C33.3676146,2.33703422 34.7217893,3.69120902 35.6445916,5.41669921 L35.9215936,5.96465134 C36.6654076,7.5358413 37.0588235,9.35052639 37.0588235,13.5735099 L37.0588235,23.4853136 L37.0425579,24.8793049 C36.9505848,28.5655926 36.4702566,30.0982646 35.6445916,31.6421243 C34.7217893,33.3676146 33.3676146,34.7217893 31.6421243,35.6445916 L31.0941723,35.9215936 C29.5229822,36.6654076 27.7082971,37.0588235 23.4853136,37.0588235 L13.5735099,37.0588235 C8.85370479,37.0588235 7.1421894,36.5673939 5.41669921,35.6445916 C3.69120902,34.7217893 2.33703422,33.3676146 1.41423196,31.6421243 C0.539998245,30.0074493 0.0529243806,28.3853171 0.0040751474,24.205987 L0,13.5735099 C0,8.85370479 0.491429705,7.1421894 1.41423196,5.41669921 C2.33703422,3.69120902 3.69120902,2.33703422 5.41669921,1.41423196 C7.05137413,0.539998245 8.67350658,0.0529243806 12.8528365,0.0040751474 L12.8528365,0.0040751474 Z" id="path-6"></path>
                        </g>
                        <g id="Clipped">
                            <mask id="mask-11" fill="white">
                                <use xlink:href="#path-10"></use>
                            </mask>
                            <g id="path-6"></g>
                            <path d="M22.2489586,14.7859053 C24.3164402,16.8533868 24.3164402,20.2054367 22.2489586,22.2729182 L7.27493268,37.2469442 C5.20745114,39.3144258 1.85540125,39.3144258 -0.212080296,37.2469442 C-2.27956184,35.1794626 -2.27956184,31.8274129 -0.212080296,29.7599313 L14.7619457,14.7859053 C16.7206124,12.8272385 19.8321881,12.7241508 21.9122137,14.4766421 L22.2489586,14.7859053 Z" id="Path" fill="url(#linearGradient-12)" mask="url(#mask-11)"></path>
                        </g>
                        <g id="Oval-Clipped">
                            <mask id="mask-14" fill="white">
                                <use xlink:href="#path-13"></use>
                            </mask>
                            <g id="path-6"></g>
                            <circle id="Oval" fill="#FFFFFF" mask="url(#mask-14)" cx="18.5294118" cy="18.5294118" r="5.29411765"></circle>
                        </g>
                    </g>
                    <g id="Rectangle" transform="translate(42.3529, 42.3529)">
                        <g id="path-9-link" fill="#D23EEA">
                            <path d="M12.8528365,0.0040751474 L23.4853136,0 C28.2051188,0 29.9166342,0.491429705 31.6421243,1.41423196 C33.3676146,2.33703422 34.7217893,3.69120902 35.6445916,5.41669921 C36.5673939,7.1421894 37.0588235,8.85370479 37.0588235,13.5735099 L37.0588235,23.4853136 C37.0588235,28.2051188 36.5673939,29.9166342 35.6445916,31.6421243 C34.7217893,33.3676146 33.3676146,34.7217893 31.6421243,35.6445916 C29.9166342,36.5673939 28.2051188,37.0588235 23.4853136,37.0588235 L13.5735099,37.0588235 C8.85370479,37.0588235 7.1421894,36.5673939 5.41669921,35.6445916 C3.69120902,34.7217893 2.33703422,33.3676146 1.41423196,31.6421243 C0.539998245,30.0074493 0.0529243806,28.3853171 0.0040751474,24.205987 L0,13.5735099 C0,8.85370479 0.491429705,7.1421894 1.41423196,5.41669921 C2.33703422,3.69120902 3.69120902,2.33703422 5.41669921,1.41423196 C7.05137413,0.539998245 8.67350658,0.0529243806 12.8528365,0.0040751474 L12.8528365,0.0040751474 Z" id="path-9"></path>
                        </g>
                        <g id="Clipped">
                            <mask id="mask-16" fill="white">
                                <use xlink:href="#path-15"></use>
                            </mask>
                            <g id="path-9"></g>
                            <path d="M22.2489586,22.2729182 C20.1814771,24.3403998 16.8294272,24.3403998 14.7619457,22.2729182 L-0.212080296,7.29889229 C-2.27956184,5.23141076 -2.27956184,1.87936087 -0.212080296,-0.188120679 C1.85540125,-2.25560222 5.20745114,-2.25560222 7.27493268,-0.188120679 L22.2489586,14.7859053 C24.2076253,16.744572 24.3107131,19.8561477 22.5582218,21.9361733 L22.2489586,22.2729182 Z" id="Path" fill="url(#linearGradient-17)" mask="url(#mask-16)"></path>
                        </g>
                        <g id="Oval-Clipped">
                            <mask id="mask-19" fill="white">
                                <use xlink:href="#path-18"></use>
                            </mask>
                            <g id="path-9"></g>
                            <circle id="Oval" fill="#FFFFFF" mask="url(#mask-19)" cx="18.5294118" cy="18.5294118" r="5.29411765"></circle>
                        </g>
                    </g>
                </g>
                <g id="kooply-wordmark" transform="translate(100.5882, 13.2353)" fill="#291C2B" fill-rule="nonzero">
                    <path d="M5.29411765,0 C8.21797809,0 10.5882353,2.37025721 10.5882353,5.29411765 L10.5882353,47.6470588 C10.5882353,50.5709193 8.21797809,52.9411765 5.29411765,52.9411765 C2.37025721,52.9411765 0,50.5709193 0,47.6470588 L0,5.29411765 C0,2.37025721 2.37025721,0 5.29411765,0 Z M73.7599352,0 C88.3792374,0 100.230523,11.851286 100.230523,26.4705882 C100.230523,41.0898904 88.3792374,52.9411765 73.7599352,52.9411765 C59.140633,52.9411765 47.2893469,41.0898904 47.2893469,26.4705882 C47.2893469,11.851286 59.140633,0 73.7599352,0 Z M46.039667,1.55061116 C48.1071484,3.6180927 48.1071484,6.97014259 46.039667,9.03762413 L28.6082193,26.4705882 L46.039667,43.9035522 C47.9983336,45.8622191 48.1014214,48.9737949 46.3489301,51.0538204 L46.039667,51.3905654 C43.9721854,53.4580467 40.6201354,53.4580467 38.5526539,51.3905654 L17.3761834,30.2140948 C15.3087018,28.1466132 15.3087018,24.7945633 17.3761834,22.7270818 L38.5526539,1.55061116 C40.6201354,-0.516870386 43.9721854,-0.516870386 46.039667,1.55061116 Z M73.7599352,10.5882353 C64.9883539,10.5882353 57.8775822,17.6990069 57.8775822,26.4705882 C57.8775822,35.2421696 64.9883539,42.3529412 73.7599352,42.3529412 C82.5315165,42.3529412 89.6422881,35.2421696 89.6422881,26.4705882 C89.6422881,17.6990069 82.5315165,10.5882353 73.7599352,10.5882353 Z M131.968792,0 C146.588094,0 158.43938,11.851286 158.43938,26.4705882 C158.43938,41.0898904 146.588094,52.9411765 131.968792,52.9411765 C117.34949,52.9411765 105.498204,41.0898904 105.498204,26.4705882 C105.498204,11.851286 117.34949,0 131.968792,0 Z M131.968792,10.5882353 C123.19721,10.5882353 116.086439,17.6990069 116.086439,26.4705882 C116.086439,35.2421696 123.19721,42.3529412 131.968792,42.3529412 C140.740373,42.3529412 147.851145,35.2421696 147.851145,26.4705882 C147.851145,17.6990069 140.740373,10.5882353 131.968792,10.5882353 Z M174.342685,47.6470588 C174.342685,50.5709193 171.972428,52.9411765 169.048567,52.9411765 C166.124707,52.9411765 163.754449,50.5709193 163.754449,47.6470588 L163.754449,5.29411765 C163.754449,2.37025721 166.124707,0 169.048567,0 L187.577979,0 C197.81149,0 206.107391,8.29590022 206.107391,18.5294118 C206.107391,28.7629232 197.81149,37.0588235 187.577979,37.0588235 L184.885324,37.0588235 C181.961463,37.0588235 179.591206,34.6885663 179.591206,31.7647059 C179.591206,28.8408454 181.961463,26.4705882 184.885324,26.4705882 L187.577979,26.4705882 C191.963769,26.4705882 195.519155,22.9152024 195.519155,18.5294118 C195.519155,14.1436211 191.963769,10.5882353 187.577979,10.5882353 L174.342685,10.5882353 L174.342685,47.6470588 Z M216.678839,0 C219.602699,0 221.972957,2.37025721 221.972957,5.29411765 L221.972957,42.3529412 L240.502368,42.3529412 C243.293326,42.3529412 245.579864,44.5126177 245.781965,47.2519527 L245.796486,47.6470588 C245.796486,50.5709193 243.426229,52.9411765 240.502368,52.9411765 L216.678839,52.9411765 C213.754979,52.9411765 211.384721,50.5709193 211.384721,47.6470588 L211.384721,5.29411765 C211.384721,2.37025721 213.754979,0 216.678839,0 Z M244.24255,1.55061116 L261.675514,18.9820588 L279.108479,1.55061116 C281.067144,-0.408055569 284.178722,-0.511143289 286.258746,1.24134799 L286.595492,1.55061116 C288.662972,3.6180927 288.662972,6.97014259 286.595492,9.03762413 L266.969118,28.6623529 L266.969631,47.6470588 C266.969631,50.5709193 264.599375,52.9411765 261.675514,52.9411765 C258.751654,52.9411765 256.381397,50.5709193 256.381397,47.6470588 L256.380882,28.665 L236.755537,9.03762413 C234.688056,6.97014259 234.688056,3.6180927 236.755537,1.55061116 C238.823019,-0.516870386 242.175069,-0.516870386 244.24255,1.55061116 Z" id="Combined-Shape"></path>
                </g>
            </g>
        </g>
    </g>
</svg>