<?xml version="1.0" encoding="UTF-8"?>
<svg width="1256px" height="620px" viewBox="0 0 1256 620" version="1.1" xmlns="http://www.w3.org/2000/svg" xmlns:xlink="http://www.w3.org/1999/xlink">
    <title>kela-preview</title>
    <g id="kela-preview" stroke="none" fill="none" fill-rule="evenodd" stroke-width="1">
        <g id="kela-logo-offwhite" transform="translate(490, 267)" fill="#181E25">
            <g transform="translate(7.7997, 8.5786)">
                <g id="kela-wordmark" transform="translate(85.8915, 4.4025)" fill-rule="nonzero">
                    <path d="M0,0 L9.77647059,0 L9.77647059,60.0377358 L0,60.0377358 L0,0 Z M73.3235294,51.9245283 C78.2118458,51.9245283 82.9743748,50.1736399 85.4871681,46.2457542 L96.1502733,46.2460406 C92.7252595,55.2728907 83.7509101,60.8490566 73.3235294,60.8490566 C59.1822552,60.8490566 48.8823529,49.9518364 48.8823529,36.509434 C48.8823529,23.0670316 59.1822552,12.1698113 73.3235294,12.1698113 C87.4648039,12.1698113 97.7647059,23.0670316 97.7647059,36.509434 C97.7647059,37.8916759 97.6558009,39.2470067 97.4450129,40.5663456 L59.1219128,40.5667713 C60.6635686,47.1118742 65.9454512,51.9245283 73.3235294,51.9245283 Z M52.9322559,0 L22.7873235,30.0187111 L52.9314412,60.0377358 L39.9205882,60.0377358 L9.77647059,30.0188679 L39.9205882,0 L52.9322559,0 Z M73.3235294,21.0943396 C66.2533505,21.0943396 61.1080625,25.5136952 59.334342,31.6419581 L87.312717,31.6419581 C85.5389964,25.5136952 80.3937083,21.0943396 73.3235294,21.0943396 Z M103.467647,0 L113.244118,0 L113.244118,60.0377358 L103.467647,60.0377358 L103.467647,0 Z M142.166176,12.1698113 C148.480255,12.1698113 153.988203,14.5770073 158.053003,18.5242656 L158.052941,12.9811321 L167.829412,12.9811321 L167.829412,60.0377358 L158.052941,60.0377358 L158.053003,54.4946024 C153.988203,58.4418606 148.480255,60.8490566 142.166176,60.8490566 C128.731966,60.8490566 118.947059,49.9518364 118.947059,36.509434 C118.947059,23.0670316 128.731966,12.1698113 142.166176,12.1698113 Z M143.388235,21.0943396 C134.552861,21.0943396 128.723529,27.9959125 128.723529,36.509434 C128.723529,45.0229554 134.552861,51.9245283 143.388235,51.9245283 C152.22361,51.9245283 158.052941,45.0229554 158.052941,36.509434 C158.052941,27.9959125 152.22361,21.0943396 143.388235,21.0943396 Z" id="Shape"></path>
                </g>
                <g id="kela-symbol" transform="translate(0, -0)" fill-rule="nonzero">
                    <path d="M10.1238668,42.534632 L34.5364562,42.5345831 L34.7930833,42.5315151 C39.1871379,42.4112558 42.7121021,38.8262795 42.7121021,34.4214244 L42.7112874,34.364632 L42.7121021,10.0818018 L59.0062197,10.0818018 L59.0062197,58.7610471 L10.1238668,58.7610471 L10.1238668,42.534632 Z M39.4532785,27.930118 C38.0914814,26.9116922 36.399031,26.3082169 34.5650432,26.3082169 C30.0655469,26.3082169 26.4179844,29.9406236 26.4179844,34.4214244 C26.4179844,36.2477919 27.0239776,37.9332102 28.0466527,39.289349 L10.1238668,39.289349 L10.1238668,10.0818018 L39.4532785,10.0818018 L39.4532785,27.930118 Z" id="Shape" transform="translate(34.565, 34.4214) rotate(45) translate(-34.565, -34.4214)"></path>
                </g>
            </g>
        </g>
    </g>
</svg>