<?xml version="1.0" encoding="UTF-8"?>
<svg width="117px" height="116px" viewBox="0 0 117 116" version="1.1" xmlns="http://www.w3.org/2000/svg" xmlns:xlink="http://www.w3.org/1999/xlink">
    <title>Group</title>
    <g id="Presentation" stroke="none" stroke-width="1" fill="none" fill-rule="evenodd">
        <g id="Artboard" transform="translate(-230, -697)">
            <g id="Mask" transform="translate(8, 544)">
                <g id="Group-2" transform="translate(191, 64)">
                    <g id="Group" transform="translate(31.5, 89)">
                        <rect id="Rectangle" fill="#20202A" x="0" y="0" width="116" height="116" rx="58"></rect>
                        <g id="deepdub-symbol" fill="#FF3390">
                            <path d="M31.4166667,87 C47.4329244,87 60.4166667,74.0162577 60.4166667,58 C60.4166667,41.9837423 47.4329244,29 31.4166667,29 C31.4166667,41.3518519 31.4166667,50.6157407 31.4166667,56.7916667 C31.4166667,63.5046296 31.4166667,73.5740741 31.4166667,87 Z" id="Path"></path>
                            <path d="M60.4166667,87 C76.4329244,87 89.4166667,74.0162577 89.4166667,58 C89.4166667,41.9837423 76.4329244,29 60.4166667,29 C60.4166667,41.3518519 60.4166667,50.6157407 60.4166667,56.7916667 C60.4166667,63.5046296 60.4166667,73.5740741 60.4166667,87 Z" id="Path"></path>
                        </g>
                    </g>
                </g>
            </g>
        </g>
    </g>
</svg>