<svg width="512" height="512" viewBox="0 0 512 512" fill="none" xmlns="http://www.w3.org/2000/svg">
  <title>Enoki logo</title>
  <defs>
    <linearGradient id="enoki-bg" x1="86" y1="68" x2="420" y2="442" gradientUnits="userSpaceOnUse">
      <stop stop-color="#10131F"/>
      <stop offset="0.52" stop-color="#171A33"/>
      <stop offset="1" stop-color="#070A12"/>
    </linearGradient>
    <linearGradient id="enoki-ring" x1="126" y1="112" x2="390" y2="398" gradientUnits="userSpaceOnUse">
      <stop stop-color="#7CF7D4"/>
      <stop offset="0.48" stop-color="#8F8CFF"/>
      <stop offset="1" stop-color="#FFB66E"/>
    </linearGradient>
    <linearGradient id="enoki-mark" x1="150" y1="150" x2="348" y2="342" gradientUnits="userSpaceOnUse">
      <stop stop-color="#FFFFFF"/>
      <stop offset="0.56" stop-color="#EAF0FF"/>
      <stop offset="1" stop-color="#A7F3E5"/>
    </linearGradient>
    <filter id="enoki-glow" x="40" y="42" width="432" height="432" filterUnits="userSpaceOnUse" color-interpolation-filters="sRGB">
      <feFlood flood-opacity="0" result="BackgroundImageFix"/>
      <feColorMatrix in="SourceAlpha" type="matrix" values="0 0 0 0 0 0 0 0 0 0 0 0 0 0 0 0 0 0 127 0" result="hardAlpha"/>
      <feOffset dy="14"/>
      <feGaussianBlur stdDeviation="18"/>
      <feComposite in2="hardAlpha" operator="out"/>
      <feColorMatrix type="matrix" values="0 0 0 0 0.2 0 0 0 0 0.28 0 0 0 0 0.72 0 0 0 0.34 0"/>
      <feBlend mode="normal" in2="BackgroundImageFix" result="drop"/>
      <feBlend mode="normal" in="SourceGraphic" in2="drop" result="shape"/>
    </filter>
  </defs>
  <g filter="url(#enoki-glow)">
    <rect x="82" y="82" width="348" height="348" rx="112" fill="url(#enoki-bg)"/>
    <rect x="92" y="92" width="328" height="328" rx="102" stroke="url(#enoki-ring)" stroke-width="20"/>
    <path d="M146 180C146 160.67 161.67 145 181 145H346C365.33 145 381 160.67 381 180C381 199.33 365.33 215 346 215H216V225H316C335.33 225 351 240.67 351 260C351 279.33 335.33 295 316 295H216V305H346C365.33 305 381 320.67 381 340C381 359.33 365.33 375 346 375H181C161.67 375 146 359.33 146 340V180Z" fill="url(#enoki-mark)"/>
    <circle cx="162" cy="260" r="31" fill="#7CF7D4"/>
    <circle cx="349" cy="145" r="17" fill="#FFB66E"/>
    <circle cx="349" cy="375" r="17" fill="#8F8CFF"/>
  </g>
</svg>
