<svg xmlns="http://www.w3.org/2000/svg" viewBox="0 0 264 64" role="img" aria-labelledby="title"><title id="title">Enoki</title><path d="M24 8h-5c-5 0-7 3-7 8v8c0 5-2 8-6 8 4 0 6 3 6 8v8c0 5 2 8 7 8h5M40 8h5c5 0 7 3 7 8v8c0 5 2 8 6 8-4 0-6 3-6 8v8c0 5-2 8-7 8h-5" fill="none" stroke="#11151C" stroke-width="6" stroke-linecap="round"/><path d="m22 32 10-10 10 10-10 10-10-10Z" fill="#7357FF"/><circle cx="32" cy="32" r="4" fill="#F7F9F8"/><g fill="#11151C"><path d="M77 16h31v8H86v8h19v8H86v8h22v8H77zM114 27h8v4c3-3.5 7-5 11-5 8 0 13 5 13 14v16h-9V41c0-5-2-7-6-7-5 0-8 3-8 9v13h-9zM151 41c0-9 7-15 17-15s17 6 17 15-7 16-17 16-17-7-17-16zm25 0c0-5-3-8-8-8s-8 3-8 8 3 8 8 8 8-3 8-8zM191 15h9v23l12-11h11l-14 13 15 16h-11l-13-14v14h-9zM230 27h9v29h-9zm-1-9c0-3 2-5 5-5s5 2 5 5-2 5-5 5-5-2-5-5z"/></g></svg>
